{"glyphs":{":":{"x_min":0,"x_max":203,"ha":203,"o":"m 70 352 q 78 352 83 347 q 88 342 88 334 q 88 326 84 321 q 79 316 71 316 q 63 316 58 321 q 53 326 53 334 q 53 342 58 347 q 62 352 70 352 z m 61 38 q 69 38 74 33 q 79 28 79 20 q 79 12 74 7 q 70 2 62 2 q 54 2 49 7 q 44 12 44 20 q 44 28 48 33 q 53 38 61 38 z"},"$":{"x_min":0,"x_max":503,"ha":503,"o":"m 72 151 q 74 138 76 127 q 77 116 82 104 q 100 61 140 36 q 180 10 226 10 q 224 34 224 58 q 223 83 222 107 q 219 211 219 313 q 194 325 170 339 q 146 353 128 372 q 109 390 98 414 q 87 439 87 473 q 87 506 97 534 q 107 563 126 586 q 144 608 170 622 q 196 636 227 640 q 229 657 231 674 q 233 690 238 707 q 240 712 242 718 q 245 724 252 724 q 259 724 259 716 l 258 715 q 249 679 246 641 q 283 641 316 631 q 349 621 374 601 q 399 581 414 551 q 429 521 429 481 q 429 477 428 470 q 428 462 426 454 q 424 446 420 440 q 417 434 411 434 q 404 434 404 441 q 404 450 408 458 q 411 467 411 477 q 411 513 398 540 q 384 568 362 586 q 339 604 308 614 q 278 623 245 623 q 243 603 242 584 q 242 564 241 544 q 239 490 238 436 q 237 382 237 327 q 266 313 295 298 q 324 283 347 263 q 370 243 384 216 q 398 188 398 148 q 398 113 386 86 q 374 59 354 40 q 334 21 306 10 q 279 -2 248 -6 q 249 -14 250 -20 q 251 -27 253 -35 l 253 -37 q 253 -48 242 -48 q 238 -48 236 -44 q 234 -40 232 -34 q 231 -29 230 -24 q 229 -18 229 -15 q 229 -13 228 -12 q 228 -10 228 -8 l 217 -8 q 186 -8 157 4 q 128 17 105 38 q 82 59 68 88 q 54 116 54 147 q 54 158 65 158 q 72 158 72 151 z m 219 335 q 219 389 220 442 q 221 496 223 550 q 224 567 224 586 q 224 604 226 622 q 170 615 138 574 q 105 534 105 477 q 105 448 114 426 q 123 405 139 388 q 155 372 176 359 q 196 346 219 335 z m 246 11 q 274 14 298 24 q 323 33 341 50 q 359 66 370 90 q 380 113 380 144 q 380 179 368 204 q 356 228 336 246 q 315 265 290 278 q 264 292 237 305 q 237 207 240 108 q 241 83 242 59 q 243 35 246 11 z"},"?":{"x_min":0,"x_max":452,"ha":452,"o":"m 111 72 q 111 83 114 98 q 117 112 121 123 q 135 163 160 196 q 185 229 214 259 q 243 289 272 318 q 302 347 326 379 q 350 411 366 448 q 381 484 381 529 q 381 589 346 624 q 312 658 252 658 q 198 658 154 636 q 109 613 81 565 q 75 554 71 544 q 67 533 62 522 q 59 514 51 514 q 44 514 44 521 q 44 526 50 540 q 56 553 58 558 q 89 618 141 647 q 193 676 259 676 q 323 676 362 636 q 400 597 400 533 q 400 486 386 448 q 371 410 348 378 q 324 347 295 318 q 266 290 238 262 q 209 233 184 202 q 159 172 144 135 q 138 120 136 106 q 133 91 129 75 q 127 65 118 65 q 111 65 111 72 z m 81 11 q 81 29 100 29 q 117 29 117 10 q 117 -8 98 -8 q 81 -8 81 11 z"},"<":{"x_min":0,"x_max":523,"ha":523,"o":"m 349 242 q 352 241 352 236 q 352 231 348 228 q 345 225 341 225 q 340 225 327 232 q 314 240 294 252 q 274 264 250 278 q 227 292 206 304 q 185 317 170 326 q 155 336 151 339 q 148 342 148 345 q 148 351 162 360 q 177 370 199 382 q 221 393 248 406 q 275 418 300 428 q 324 439 344 447 q 363 455 371 458 q 372 459 375 459 q 382 459 382 452 q 382 446 375 442 q 361 435 346 430 q 330 424 316 418 q 279 403 243 386 q 207 370 173 349 z"},"'":{"x_min":0,"x_max":137,"ha":137,"o":"m 73 660 q 68 627 66 594 q 65 562 65 529 q 65 525 66 518 q 66 510 66 503 q 65 496 62 491 q 60 486 54 486 q 47 486 47 493 q 47 512 46 534 q 46 555 46 577 q 47 599 49 620 q 51 642 55 660 q 57 669 66 669 q 74 669 74 662 z"},"=":{"x_min":0,"x_max":471,"ha":471,"o":"m 122 379 q 115 381 115 386 q 115 391 118 394 q 122 397 126 397 l 140 397 l 167 394 l 180 394 q 222 394 264 397 q 305 400 347 400 q 355 400 355 393 q 355 388 352 386 q 348 383 343 382 q 330 380 316 380 q 303 381 289 380 q 232 377 176 377 q 163 377 149 377 q 135 377 122 379 z m 129 293 q 123 295 123 300 q 123 305 126 308 q 130 311 134 311 l 135 311 q 167 309 199 308 q 231 307 263 306 q 280 306 298 306 q 316 307 333 305 q 340 305 340 298 q 340 287 329 287 q 262 287 194 290 q 178 291 161 291 q 144 291 129 293 z"},"a":{"x_min":0,"x_max":418,"ha":418,"o":"m 210 234 q 204 221 194 198 q 184 175 170 148 q 156 120 140 92 q 125 64 108 41 q 91 18 74 4 q 58 -11 42 -11 q 23 -11 11 2 q -1 14 -8 32 q -15 50 -17 70 q -19 90 -19 105 q -19 138 -10 177 q -1 216 18 250 q 36 283 65 306 q 94 328 134 328 q 159 328 180 312 q 200 295 209 272 q 213 280 216 288 q 219 295 224 303 q 228 310 234 310 q 241 310 241 303 l 241 301 q 232 259 226 218 q 220 177 220 134 q 220 123 220 102 q 221 81 226 60 q 230 40 239 24 q 248 9 264 9 q 285 9 308 32 q 331 56 352 88 q 372 119 388 151 q 404 183 412 199 q 418 212 424 226 q 429 239 436 252 q 440 259 446 259 q 453 259 453 251 l 452 249 q 445 233 434 208 q 422 182 408 154 q 393 125 376 96 q 358 67 338 44 q 319 20 300 6 q 280 -9 260 -9 q 238 -9 226 8 q 215 24 210 46 q 204 69 203 92 q 202 116 202 131 q 202 157 204 182 q 205 208 210 234 z m 196 241 q 192 255 188 268 q 183 280 175 290 q 167 299 156 304 q 144 310 127 310 q 93 310 69 289 q 45 268 30 237 q 14 206 6 171 q -1 136 -1 109 q -1 99 1 82 q 3 64 8 48 q 13 31 22 19 q 31 7 46 7 q 57 7 71 21 q 85 35 100 58 q 115 80 130 107 q 145 134 158 160 q 171 186 181 208 q 191 230 196 241 z"},"L":{"x_min":0,"x_max":592,"ha":592,"o":"m 75 -96 q 57 -96 42 -80 q 26 -64 14 -42 q 3 -19 -3 4 q -9 28 -9 43 q -9 63 4 79 q 18 95 39 95 q 52 95 64 88 q 76 82 88 71 q 100 60 114 46 q 127 32 143 18 q 148 41 152 64 q 155 88 157 110 q 159 131 160 148 q 161 165 161 175 q 161 199 160 224 q 158 248 156 272 l 150 336 q 148 361 146 385 q 145 409 145 433 q 145 468 150 516 q 155 564 170 608 q 185 653 214 684 q 242 715 289 715 q 327 715 352 694 q 378 674 393 644 q 408 613 414 578 q 421 542 421 512 q 421 488 418 460 q 414 431 405 404 q 396 377 381 354 q 366 332 343 318 q 339 316 331 312 q 323 309 318 309 q 311 309 311 316 q 311 323 319 327 q 326 330 332 332 q 337 333 343 338 q 361 350 372 371 q 384 392 390 416 q 397 439 400 464 q 403 488 403 508 q 403 535 398 568 q 392 601 378 630 q 365 658 342 678 q 319 697 285 697 q 258 697 238 683 q 219 669 206 646 q 192 624 184 596 q 175 568 170 539 q 166 510 164 483 q 163 456 163 437 q 163 413 164 389 q 166 365 168 340 l 174 276 q 176 252 178 228 q 179 203 179 179 q 179 166 178 146 q 177 126 175 102 q 173 79 168 54 q 164 29 158 5 q 187 -17 227 -33 q 267 -49 327 -49 q 387 -49 434 -30 q 482 -10 514 41 q 518 47 524 47 q 531 47 531 40 q 531 35 524 24 q 516 14 513 9 q 498 -12 476 -26 q 453 -41 428 -50 q 402 -59 375 -63 q 348 -67 323 -67 q 279 -67 236 -56 q 194 -45 157 -19 l 154 -17 q 140 -51 122 -74 q 103 -96 75 -96 z m 137 -4 l 134 -1 l 127 4 l 124 7 q 117 14 106 26 q 95 38 82 49 q 70 60 58 68 q 46 77 35 77 q 21 77 15 66 q 9 56 9 44 q 9 32 15 11 q 21 -10 30 -30 q 40 -49 54 -64 q 67 -78 82 -78 q 102 -78 115 -57 q 128 -36 137 -4 z"},"3":{"x_min":0,"x_max":2103,"ha":2103,"o":"m 293 256 l 293 298 q 293 301 291 303 l 187 409 l 187 409 l 187 208 q 187 191 193 191 l 137 191 q 143 191 143 208 l 143 453 q 143 468 137 470 l 193 470 q 191 470 191 468 q 191 463 193 456 q 195 449 203 441 l 290 353 q 293 350 293 353 l 293 469 q 293 485 287 486 l 346 486 q 344 486 340 481 q 337 476 337 469 l 337 256 z m 212 151 q 214 151 216 156 q 218 161 218 168 l 218 370 l 262 325 l 262 260 q 262 252 264 252 q 267 251 273 251 l 355 251 q 362 251 365 252 q 368 252 368 260 l 368 441 q 368 448 366 453 q 365 458 362 458 l 418 458 q 416 458 414 453 q 412 448 412 441 l 412 184 q 412 167 418 167 l 362 167 q 368 167 368 184 l 368 211 q 368 219 365 220 q 362 220 355 220 l 273 220 q 267 220 264 220 q 262 219 262 211 l 262 168 q 262 161 264 156 q 265 151 268 151 z m 337 215 l 337 184 q 337 177 339 172 q 341 167 343 167 l 287 167 q 293 169 293 184 l 293 215 z m 218 469 q 218 484 212 486 l 268 486 q 265 486 264 481 q 262 476 262 469 l 262 389 l 218 433 z m 47 319 q 47 398 64 447 q 80 496 110 523 q 141 550 184 560 q 226 569 278 569 q 330 569 372 560 q 415 550 445 523 q 475 496 492 447 q 508 398 508 319 q 508 240 492 191 q 475 142 445 114 q 415 87 372 78 q 330 68 278 68 q 226 68 184 78 q 141 87 110 114 q 80 142 64 191 q 47 240 47 319 z m 79 319 q 79 246 92 202 q 106 157 132 132 q 158 108 195 100 q 232 92 278 92 q 324 92 361 100 q 398 108 424 132 q 449 157 462 202 q 476 246 476 319 q 476 392 462 436 q 449 481 424 505 q 398 529 361 537 q 324 545 278 545 q 232 545 195 537 q 158 529 132 504 q 106 480 92 436 q 79 391 79 319 z m 880 317 q 880 257 846 214 q 811 170 753 158 q 736 154 718 154 q 701 153 684 153 l 568 153 l 568 483 l 687 483 q 728 483 763 474 q 798 465 824 445 q 850 425 865 394 q 880 362 880 317 z m 792 319 q 792 348 784 368 q 775 387 760 399 q 745 411 723 416 q 701 421 674 421 l 653 421 l 653 215 l 674 215 q 729 215 760 237 q 792 259 792 319 z m 945 153 l 945 483 l 1184 483 l 1184 419 l 1030 419 l 1030 362 l 1173 362 l 1173 299 l 1030 299 l 1030 217 l 1184 217 l 1184 153 z m 1517 153 l 1517 374 l 1456 230 l 1397 230 l 1335 374 l 1335 153 l 1255 153 l 1255 483 l 1354 483 l 1428 317 l 1503 483 l 1602 483 l 1602 153 z m 2007 318 q 2007 238 1962 192 q 1917 146 1837 146 q 1757 146 1712 192 q 1667 238 1667 318 q 1667 398 1712 444 q 1757 490 1837 490 q 1917 490 1962 444 q 2007 397 2007 318 z m 1837 208 q 1860 208 1876 218 q 1892 228 1902 244 q 1911 259 1915 279 q 1919 299 1919 318 q 1919 338 1915 358 q 1911 377 1902 392 q 1892 408 1876 418 q 1860 428 1837 428 q 1814 428 1798 418 q 1782 408 1772 392 q 1763 377 1759 358 q 1755 338 1755 318 q 1755 299 1759 279 q 1763 259 1772 244 q 1782 228 1798 218 q 1814 208 1837 208 z"},";":{"x_min":0,"x_max":201,"ha":201,"o":"m 70 352 q 78 352 83 347 q 88 342 88 334 q 88 326 84 321 q 79 316 71 316 q 63 316 58 321 q 53 326 53 334 q 53 342 58 347 q 62 352 70 352 z m 60 10 q 55 12 55 17 q 55 23 59 28 q 63 34 70 34 q 81 34 81 23 q 81 17 75 5 q 69 -7 60 -20 q 52 -33 44 -42 q 35 -52 29 -52 q 22 -52 22 -45 q 22 -42 27 -35 q 32 -28 39 -20 q 46 -12 52 -4 q 58 4 60 10 z"},"J":{"x_min":0,"x_max":430,"ha":430,"o":"m 28 -65 q 34 -10 57 46 q 80 103 116 155 q 151 207 195 252 q 239 296 287 327 q 288 344 288 356 q 288 369 288 380 q 288 409 286 444 q 283 480 276 515 q 270 550 259 583 q 248 616 231 640 q 220 654 206 666 q 192 677 173 677 q 148 677 130 660 q 112 642 100 616 q 89 591 84 564 q 79 536 79 516 q 79 499 82 476 q 86 453 93 430 q 100 408 110 388 q 121 368 134 356 q 141 350 146 348 q 151 346 159 343 q 165 342 165 336 q 165 331 162 328 q 158 325 154 325 q 149 325 143 328 q 137 330 133 332 q 114 345 100 366 q 86 388 78 413 q 69 438 65 464 q 61 490 61 512 q 61 537 68 568 q 74 600 88 628 q 102 656 124 676 q 146 695 177 695 q 194 695 207 688 q 239 673 258 635 q 278 597 288 552 q 299 506 302 460 q 306 415 306 384 q 306 374 306 362 q 306 351 305 338 l 316 344 q 319 346 328 350 q 336 354 346 358 q 355 363 363 366 q 371 369 374 369 q 381 369 381 362 q 381 356 374 352 q 354 343 338 335 q 321 327 305 318 q 304 289 300 242 q 297 194 288 140 q 280 86 266 32 q 252 -23 230 -67 q 208 -111 177 -138 q 146 -166 103 -166 q 81 -166 66 -157 q 52 -148 44 -134 q 35 -120 32 -102 q 28 -83 28 -65 z m 286 307 q 245 280 202 236 q 160 191 125 139 q 90 87 68 32 q 46 -24 46 -74 q 46 -104 62 -126 q 78 -148 110 -148 q 143 -148 168 -126 q 193 -103 212 -66 q 231 -28 244 20 q 257 67 266 118 q 274 168 279 218 q 284 267 286 307 z"},"V":{"x_min":0,"x_max":531,"ha":531,"o":"m -46 435 q -46 430 -50 427 q -53 424 -57 424 q -63 424 -66 435 q -70 446 -72 460 q -74 473 -74 486 q -75 500 -75 504 q -75 531 -69 562 q -63 593 -48 620 q -34 647 -11 664 q 12 682 45 682 q 79 682 99 650 q 119 618 131 566 q 143 514 148 447 q 153 380 156 310 q 158 241 161 174 q 164 107 170 55 q 177 3 190 -29 q 204 -61 228 -61 q 238 -61 248 -54 q 258 -48 267 -39 q 276 -30 283 -20 q 290 -10 295 -2 q 318 35 339 84 q 360 134 378 191 q 396 248 410 310 q 425 371 436 430 q 446 489 452 544 q 457 598 457 641 q 457 657 456 672 q 454 687 452 703 l 452 704 q 452 715 463 715 q 469 715 470 709 q 472 693 474 677 q 475 661 475 645 q 475 576 462 486 q 449 395 426 302 q 404 210 372 125 q 341 40 304 -18 q 290 -39 269 -59 q 248 -79 221 -79 q 194 -79 178 -47 q 163 -15 155 37 q 147 89 144 156 q 140 223 137 292 q 134 362 130 429 q 126 496 116 548 q 106 600 88 632 q 71 664 41 664 q 13 664 -6 648 q -25 632 -36 608 q -47 584 -52 557 q -57 530 -57 508 q -57 489 -54 472 q -51 455 -46 437 z"},"\"":{"x_min":0,"x_max":243,"ha":243,"o":"m 81 668 q 79 658 78 648 q 78 639 77 629 q 75 610 74 591 q 74 572 73 553 q 73 544 73 535 q 73 526 72 517 q 70 506 61 506 q 53 506 53 513 q 53 530 54 551 q 54 572 55 594 q 56 616 58 636 q 60 657 64 673 q 66 684 76 684 q 83 684 83 677 q 83 674 81 668 z m 139 514 q 137 525 137 545 q 137 565 137 577 q 137 586 138 595 q 138 604 139 612 l 142 646 q 143 653 144 660 q 144 667 145 674 q 147 685 156 685 q 163 685 163 678 q 163 654 159 630 q 155 606 155 581 l 155 565 l 157 534 l 157 518 q 157 507 146 507 q 141 507 139 514 z"},"7":{"x_min":0,"x_max":2103,"ha":2103,"o":"m 293 256 l 293 298 q 293 301 291 303 l 187 409 l 187 409 l 187 208 q 187 191 193 191 l 137 191 q 143 191 143 208 l 143 453 q 143 468 137 470 l 193 470 q 191 470 191 468 q 191 463 193 456 q 195 449 203 441 l 290 353 q 293 350 293 353 l 293 469 q 293 485 287 486 l 346 486 q 344 486 340 481 q 337 476 337 469 l 337 256 z m 212 151 q 214 151 216 156 q 218 161 218 168 l 218 370 l 262 325 l 262 260 q 262 252 264 252 q 267 251 273 251 l 355 251 q 362 251 365 252 q 368 252 368 260 l 368 441 q 368 448 366 453 q 365 458 362 458 l 418 458 q 416 458 414 453 q 412 448 412 441 l 412 184 q 412 167 418 167 l 362 167 q 368 167 368 184 l 368 211 q 368 219 365 220 q 362 220 355 220 l 273 220 q 267 220 264 220 q 262 219 262 211 l 262 168 q 262 161 264 156 q 265 151 268 151 z m 337 215 l 337 184 q 337 177 339 172 q 341 167 343 167 l 287 167 q 293 169 293 184 l 293 215 z m 218 469 q 218 484 212 486 l 268 486 q 265 486 264 481 q 262 476 262 469 l 262 389 l 218 433 z m 47 319 q 47 398 64 447 q 80 496 110 523 q 141 550 184 560 q 226 569 278 569 q 330 569 372 560 q 415 550 445 523 q 475 496 492 447 q 508 398 508 319 q 508 240 492 191 q 475 142 445 114 q 415 87 372 78 q 330 68 278 68 q 226 68 184 78 q 141 87 110 114 q 80 142 64 191 q 47 240 47 319 z m 79 319 q 79 246 92 202 q 106 157 132 132 q 158 108 195 100 q 232 92 278 92 q 324 92 361 100 q 398 108 424 132 q 449 157 462 202 q 476 246 476 319 q 476 392 462 436 q 449 481 424 505 q 398 529 361 537 q 324 545 278 545 q 232 545 195 537 q 158 529 132 504 q 106 480 92 436 q 79 391 79 319 z m 880 317 q 880 257 846 214 q 811 170 753 158 q 736 154 718 154 q 701 153 684 153 l 568 153 l 568 483 l 687 483 q 728 483 763 474 q 798 465 824 445 q 850 425 865 394 q 880 362 880 317 z m 792 319 q 792 348 784 368 q 775 387 760 399 q 745 411 723 416 q 701 421 674 421 l 653 421 l 653 215 l 674 215 q 729 215 760 237 q 792 259 792 319 z m 945 153 l 945 483 l 1184 483 l 1184 419 l 1030 419 l 1030 362 l 1173 362 l 1173 299 l 1030 299 l 1030 217 l 1184 217 l 1184 153 z m 1517 153 l 1517 374 l 1456 230 l 1397 230 l 1335 374 l 1335 153 l 1255 153 l 1255 483 l 1354 483 l 1428 317 l 1503 483 l 1602 483 l 1602 153 z m 2007 318 q 2007 238 1962 192 q 1917 146 1837 146 q 1757 146 1712 192 q 1667 238 1667 318 q 1667 398 1712 444 q 1757 490 1837 490 q 1917 490 1962 444 q 2007 397 2007 318 z m 1837 208 q 1860 208 1876 218 q 1892 228 1902 244 q 1911 259 1915 279 q 1919 299 1919 318 q 1919 338 1915 358 q 1911 377 1902 392 q 1892 408 1876 418 q 1860 428 1837 428 q 1814 428 1798 418 q 1782 408 1772 392 q 1763 377 1759 358 q 1755 338 1755 318 q 1755 299 1759 279 q 1763 259 1772 244 q 1782 228 1798 218 q 1814 208 1837 208 z"},"S":{"x_min":0,"x_max":641,"ha":641,"o":"m 422 652 q 408 673 386 685 q 365 697 334 697 q 300 697 269 682 q 238 667 214 642 q 190 617 176 585 q 162 553 162 520 q 162 483 179 458 q 196 433 224 416 q 251 398 286 385 q 322 372 360 359 q 397 346 432 330 q 468 314 496 291 q 523 268 540 235 q 557 202 557 154 q 557 97 534 49 q 510 1 470 -34 q 431 -68 380 -88 q 329 -107 274 -107 q 227 -107 182 -92 q 138 -77 104 -49 q 70 -21 50 19 q 29 59 29 110 q 29 151 44 190 q 59 228 85 258 q 111 288 147 306 q 183 325 226 325 q 250 325 272 316 q 295 308 312 293 q 328 278 338 257 q 348 236 348 210 q 348 206 348 199 q 347 192 345 184 q 343 177 340 172 q 336 166 330 166 q 323 166 323 173 q 323 182 326 190 q 330 198 330 208 q 330 231 320 250 q 311 268 296 281 q 280 294 260 300 q 240 307 218 307 q 181 307 150 290 q 118 273 95 246 q 72 218 60 184 q 47 149 47 114 q 47 67 66 29 q 86 -9 118 -35 q 151 -61 192 -75 q 234 -89 278 -89 q 329 -89 376 -72 q 423 -54 459 -22 q 495 9 517 53 q 539 97 539 150 q 539 196 522 227 q 505 258 478 280 q 450 302 414 317 q 379 332 342 345 q 304 358 268 372 q 233 385 206 404 q 178 423 161 450 q 144 476 144 516 q 144 555 160 591 q 177 627 204 654 q 231 682 267 698 q 303 715 342 715 q 377 715 402 698 q 428 682 442 656 q 450 658 459 659 q 468 660 476 660 q 483 660 483 653 q 483 644 473 642 q 467 640 462 640 q 456 639 450 638 q 462 608 462 573 q 462 551 456 528 q 451 505 439 486 q 427 468 408 456 q 390 444 364 444 q 328 444 306 463 q 283 482 283 520 q 283 548 296 570 q 308 592 328 608 q 349 625 374 636 q 398 646 422 652 z m 301 524 q 301 495 318 478 q 335 462 364 462 q 387 462 402 472 q 417 481 426 496 q 436 512 440 531 q 444 550 444 569 q 444 607 430 635 l 427 634 q 406 629 384 620 q 361 612 342 599 q 324 586 312 568 q 301 549 301 524 z"},"}":{"x_min":0,"x_max":260,"ha":260,"o":"m 192 287 q 171 303 162 330 q 154 356 152 389 q 149 422 150 458 q 150 494 146 530 q 142 565 130 597 q 118 629 91 653 q 82 661 70 668 q 58 674 45 674 l 40 672 q 30 672 30 679 q 30 687 38 690 q 45 692 51 692 q 61 692 70 688 q 80 685 88 680 q 121 659 137 628 q 153 598 160 563 q 167 528 168 491 q 168 454 169 420 q 170 387 174 358 q 179 330 193 313 q 197 308 207 302 q 217 297 217 292 q 217 287 213 284 q 197 269 187 250 q 176 227 170 202 q 164 178 159 154 l 144 75 q 142 63 138 39 q 134 15 126 -10 q 119 -35 108 -54 q 96 -72 79 -72 q 76 -72 72 -71 q 69 -70 69 -65 q 69 -54 80 -54 q 87 -54 90 -52 q 92 -49 95 -44 q 103 -32 110 -6 q 116 20 122 50 q 127 79 132 108 q 137 136 140 152 q 143 169 147 188 q 151 206 157 224 q 163 242 172 258 q 180 275 192 287 z"},"Z":{"x_min":0,"x_max":599,"ha":599,"o":"m 177 -17 q 163 -37 152 -52 q 140 -68 132 -77 q 127 -82 118 -89 q 110 -96 102 -96 q 82 -96 66 -80 q 50 -65 38 -43 q 27 -21 21 3 q 15 27 15 43 q 15 63 28 79 q 42 95 63 95 q 77 95 90 87 q 102 79 115 67 q 128 55 143 40 q 158 24 177 9 q 254 127 322 250 q 391 374 449 502 q 453 511 460 527 q 467 543 474 560 q 480 576 485 592 q 490 608 490 617 q 490 639 472 652 q 453 665 428 672 q 403 680 377 682 q 351 685 335 685 q 301 685 254 677 q 206 669 162 651 q 119 633 88 603 q 58 573 58 529 q 58 514 63 498 q 68 483 68 478 q 68 467 57 467 q 52 467 49 475 q 46 483 44 494 q 42 504 41 514 q 40 524 40 528 q 40 545 46 560 q 51 576 59 590 q 77 621 110 642 q 144 663 184 676 q 224 690 265 696 q 306 702 339 702 q 358 702 386 699 q 415 696 442 688 q 469 679 488 663 q 508 647 508 621 q 508 601 492 559 q 477 517 451 462 q 425 408 392 345 q 358 282 322 220 q 287 157 252 100 q 217 43 189 0 q 218 -20 256 -34 q 295 -49 351 -49 q 411 -49 458 -30 q 506 -10 538 41 q 542 47 548 47 q 555 47 555 40 q 555 35 548 24 q 540 14 537 9 q 522 -12 500 -26 q 477 -41 452 -50 q 426 -59 399 -63 q 372 -67 347 -67 q 303 -67 260 -56 q 218 -46 182 -20 q 181 -19 177 -17 z m 166 -8 l 148 7 q 141 14 130 26 q 119 38 106 49 q 94 60 82 68 q 70 77 59 77 q 45 77 39 66 q 33 56 33 44 q 33 32 39 11 q 45 -10 54 -30 q 64 -49 78 -64 q 91 -78 106 -78 q 108 -78 115 -71 q 122 -64 124 -62 q 147 -37 166 -8 z"},"x":{"x_min":0,"x_max":336,"ha":336,"o":"m 35 317 q 37 303 38 290 q 38 276 40 262 q 45 227 55 190 q 65 152 82 117 q 106 157 126 190 q 147 222 152 232 q 164 252 174 272 q 183 293 193 314 q 196 322 204 322 q 211 322 211 315 q 211 306 197 279 q 183 252 164 218 q 145 185 124 152 q 104 118 92 98 q 99 86 110 70 q 120 55 133 42 q 146 28 161 18 q 176 9 191 9 q 211 9 232 33 q 254 57 274 88 q 293 120 308 152 q 323 183 330 199 q 336 212 342 226 q 347 240 353 252 q 357 259 363 259 q 370 259 370 252 q 370 249 369 248 q 363 232 352 206 q 342 181 328 152 q 314 124 298 96 q 281 67 262 44 q 244 20 224 6 q 205 -9 185 -9 q 169 -9 153 0 q 137 8 123 21 q 109 34 98 49 q 86 64 78 76 q 77 75 77 74 q 77 74 76 73 q 65 55 54 38 q 44 20 33 1 q 33 0 32 0 q 32 0 32 -1 l 29 -6 q 29 -7 28 -8 l 18 -27 q 18 -28 18 -28 q 17 -28 17 -29 l 14 -34 q 14 -35 13 -36 q 10 -43 3 -43 q -4 -43 -4 -36 q -4 -33 2 -21 q 8 -9 18 9 q 29 27 42 50 q 56 72 70 96 q 44 148 30 208 q 17 267 17 313 q 17 324 28 324 q 35 324 35 317 z"},")":{"x_min":0,"x_max":295,"ha":295,"o":"m 83 688 q 126 660 153 614 q 180 569 196 516 q 211 464 217 409 q 223 354 223 307 q 223 265 216 214 q 209 164 194 114 q 179 65 156 21 q 133 -23 100 -53 q 98 -55 93 -59 q 88 -63 82 -67 q 76 -71 70 -74 q 65 -77 62 -77 q 55 -77 55 -70 q 55 -64 61 -60 q 72 -54 80 -48 q 89 -42 98 -33 q 125 -6 146 36 q 166 78 179 124 q 192 171 198 218 q 205 265 205 303 q 205 343 200 389 q 196 435 185 480 q 174 526 156 568 q 137 609 109 640 q 100 650 91 657 q 82 664 71 672 q 68 674 68 678 q 68 683 72 686 q 75 689 79 689 q 82 689 83 688 z"},"&":{"x_min":0,"x_max":602,"ha":602,"o":"m 467 -69 q 467 -80 456 -80 q 451 -80 449 -75 q 443 -55 440 -32 q 438 -8 436 13 q 431 55 428 96 q 426 138 424 180 q 414 147 396 107 q 378 67 352 32 q 327 -2 294 -26 q 261 -49 220 -49 q 186 -49 160 -35 q 133 -21 114 2 q 96 25 86 55 q 77 85 77 116 q 77 165 95 207 q 103 225 114 245 q 126 265 140 284 q 155 302 172 318 q 190 333 209 343 q 155 357 125 402 q 95 446 95 507 q 95 544 107 577 q 119 610 141 635 q 163 660 194 674 q 225 689 264 689 q 295 689 322 678 q 350 668 370 648 q 391 629 403 602 q 415 576 415 544 q 415 515 399 484 q 383 454 360 437 q 354 432 347 428 q 340 424 332 424 q 322 424 322 431 q 322 442 333 442 q 340 442 345 446 q 350 450 355 454 q 374 471 386 494 q 397 516 397 542 q 397 570 386 594 q 375 617 356 634 q 337 652 312 662 q 287 671 260 671 q 226 671 198 658 q 171 645 152 624 q 133 602 123 573 q 113 544 113 511 q 113 444 150 402 q 187 359 255 355 l 258 355 q 262 355 266 354 q 269 353 269 348 q 269 337 258 337 l 249 337 q 235 336 224 331 q 212 326 201 318 q 178 303 158 280 q 139 257 125 231 q 111 205 103 176 q 95 147 95 120 q 95 93 104 66 q 112 39 128 18 q 144 -4 168 -18 q 191 -31 221 -31 q 258 -31 288 -10 q 317 12 340 44 q 362 75 378 111 q 394 147 404 177 q 409 191 413 205 q 417 219 420 233 q 422 238 422 242 q 422 246 423 250 q 399 249 376 246 q 353 244 328 239 l 327 238 q 319 238 319 245 q 319 254 327 256 q 344 262 370 265 q 396 268 424 269 q 453 270 480 270 q 508 270 527 270 q 534 270 534 263 q 534 254 523 252 q 510 250 489 250 q 468 251 454 251 l 442 251 l 442 248 l 441 236 q 441 191 444 148 q 447 105 451 61 q 454 29 457 -3 q 460 -35 467 -67 z"},"_":{"x_min":0,"x_max":401,"ha":401,"o":"m 60 -6 q 60 -1 64 2 q 67 5 71 5 l 348 7 q 355 7 355 0 q 355 -11 344 -11 l 67 -13 q 60 -13 60 -6 z"},"v":{"x_min":0,"x_max":379,"ha":379,"o":"m 220 190 q 211 155 199 119 q 187 83 172 54 q 158 24 142 6 q 125 -13 108 -13 q 89 -13 75 4 q 61 22 52 50 q 42 77 36 111 q 29 145 26 177 q 22 209 21 236 q 20 262 20 276 q 20 281 20 292 q 20 303 22 314 q 23 325 26 334 q 29 342 36 342 q 43 342 43 335 l 43 334 q 41 320 40 306 q 39 293 39 279 q 39 255 41 220 q 43 184 48 147 q 54 110 63 77 q 72 44 86 24 q 91 18 98 12 q 104 5 112 5 q 120 5 127 14 q 134 23 138 28 q 157 56 176 105 q 194 154 207 205 q 188 233 188 276 q 188 283 190 295 q 191 307 194 319 q 198 331 204 340 q 210 348 220 348 q 228 348 232 344 q 236 339 238 333 q 240 327 240 320 q 241 313 241 307 q 241 294 238 269 q 234 244 226 213 q 249 184 292 184 q 330 184 353 203 q 376 222 396 252 q 400 259 406 259 q 413 259 413 252 q 413 248 408 241 q 404 234 402 230 q 382 201 352 184 q 323 166 288 166 q 246 166 220 190 z m 214 235 q 223 276 223 306 q 223 312 222 318 q 222 325 218 330 q 215 327 212 320 q 210 314 208 306 q 207 299 206 292 q 206 284 206 280 q 206 256 214 235 z"},"O":{"x_min":0,"x_max":707,"ha":707,"o":"m 541 555 q 563 535 578 508 q 594 480 604 450 q 613 419 618 386 q 622 353 622 322 q 622 273 613 219 q 604 165 585 114 q 566 64 536 20 q 505 -23 461 -51 q 429 -71 396 -82 q 363 -93 325 -93 q 255 -93 206 -60 q 156 -28 125 23 q 94 74 80 136 q 66 198 66 258 q 66 348 90 436 q 115 524 166 598 q 183 622 204 644 q 225 665 250 680 q 275 696 304 706 q 332 715 362 715 q 399 715 430 704 q 462 693 486 672 q 510 651 524 622 q 539 592 541 555 z m 540 527 q 538 505 530 482 q 523 460 510 443 q 496 426 477 415 q 458 404 433 404 q 426 404 426 411 q 426 420 436 422 q 448 424 452 424 q 455 424 465 428 q 482 435 493 448 q 504 461 511 477 q 518 493 520 511 q 523 529 523 545 q 503 562 478 572 q 454 581 422 581 q 391 581 368 570 q 344 559 328 546 q 311 532 300 521 q 290 510 285 510 q 278 510 278 517 q 278 522 284 528 q 289 534 292 537 q 318 563 351 581 q 384 599 422 599 q 480 599 520 571 q 510 631 466 664 q 421 697 358 697 q 326 697 297 686 q 268 675 242 655 q 201 624 172 577 q 142 530 122 476 q 103 423 94 368 q 84 312 84 262 q 84 206 98 146 q 111 86 140 37 q 169 -12 216 -44 q 262 -75 329 -75 q 378 -75 417 -58 q 456 -40 487 -10 q 518 20 540 60 q 562 100 576 144 q 590 187 597 232 q 604 277 604 318 q 604 371 590 428 q 575 486 540 527 z"},"(":{"x_min":0,"x_max":289,"ha":289,"o":"m 230 -76 q 187 -48 160 -2 q 133 43 118 96 q 102 148 96 203 q 90 258 90 305 q 90 347 97 398 q 104 448 119 498 q 134 547 157 591 q 180 635 213 665 q 215 667 220 671 q 225 675 231 679 q 237 683 242 686 q 248 689 251 689 q 258 689 258 682 q 258 676 252 672 q 241 666 232 660 q 224 654 215 645 q 188 618 168 576 q 147 534 134 488 q 121 441 114 394 q 108 347 108 309 q 108 269 112 223 q 117 177 128 132 q 139 86 158 44 q 176 3 204 -28 q 213 -38 222 -45 q 231 -52 242 -60 q 245 -62 245 -66 q 245 -71 242 -74 q 238 -77 234 -77 q 231 -77 230 -76 z"},"C":{"x_min":0,"x_max":700,"ha":700,"o":"m 590 75 q 594 82 600 82 q 607 82 607 75 q 607 73 604 67 q 602 61 598 55 q 594 49 590 43 q 587 37 585 35 q 540 -26 472 -60 q 403 -93 328 -93 q 257 -93 206 -65 q 155 -37 122 10 q 89 56 74 116 q 58 176 58 239 q 58 317 76 392 q 95 467 132 536 q 152 572 179 604 q 206 637 240 662 q 273 686 312 700 q 351 715 394 715 q 442 715 480 697 q 518 679 542 646 q 544 647 545 647 q 546 647 548 648 l 559 652 q 561 653 562 653 q 563 653 565 654 q 568 655 576 658 q 585 660 587 660 q 594 660 594 653 q 594 647 586 643 l 552 631 q 573 595 573 545 q 573 520 566 495 q 559 470 546 450 q 532 429 511 416 q 490 404 461 404 q 432 404 412 426 q 393 448 393 476 q 393 505 404 530 q 415 554 434 574 q 452 595 476 610 q 499 626 524 638 q 501 667 466 682 q 432 697 390 697 q 333 697 286 672 q 239 647 203 607 q 167 567 142 517 q 116 467 101 418 q 76 334 76 243 q 76 183 90 126 q 105 69 136 24 q 167 -21 216 -48 q 264 -75 332 -75 q 397 -75 456 -49 q 515 -23 557 27 q 567 38 574 50 q 582 62 590 75 z m 533 624 q 511 614 490 600 q 468 587 450 570 q 433 552 422 530 q 412 508 412 482 q 412 456 428 439 q 443 422 469 422 q 492 422 508 434 q 524 445 534 462 q 545 480 550 501 q 555 522 555 541 q 555 588 533 624 z"},"W":{"x_min":0,"x_max":765,"ha":765,"o":"m -46 435 q -46 430 -50 427 q -53 424 -57 424 q -63 424 -66 435 q -70 446 -72 460 q -74 473 -74 486 q -75 500 -75 504 q -75 531 -69 562 q -63 593 -48 620 q -34 647 -11 664 q 12 682 45 682 q 79 682 100 650 q 120 618 132 566 q 143 514 148 447 q 153 380 156 310 q 159 241 162 174 q 164 107 171 55 q 178 3 191 -29 q 204 -61 228 -61 q 237 -61 244 -56 q 252 -51 259 -44 q 266 -36 271 -28 q 276 -19 280 -13 q 307 35 326 102 q 346 170 360 243 q 373 316 381 388 q 389 459 394 514 q 395 522 396 530 q 396 537 397 545 q 399 555 408 555 q 415 555 415 548 l 415 547 q 413 502 412 457 q 411 412 411 366 q 411 349 412 310 q 412 271 414 224 q 417 176 422 125 q 428 74 438 32 q 449 -11 466 -38 q 482 -65 506 -65 q 524 -65 538 -52 q 553 -40 564 -27 q 595 11 616 68 q 636 124 648 187 q 661 250 666 312 q 671 374 671 422 q 671 494 663 562 q 655 631 640 700 l 640 702 q 640 713 651 713 q 656 713 658 708 q 676 641 682 568 q 689 495 689 426 q 689 377 684 318 q 680 260 669 201 q 658 142 640 87 q 623 32 596 -10 q 588 -23 578 -36 q 568 -49 556 -60 q 544 -70 530 -76 q 516 -83 499 -83 q 473 -83 455 -57 q 437 -31 425 10 q 413 50 406 100 q 400 149 397 196 q 394 243 394 282 q 393 320 393 339 q 390 319 383 280 q 376 242 366 196 q 356 149 342 100 q 328 51 310 12 q 293 -28 272 -54 q 250 -79 224 -79 q 216 -79 210 -78 q 205 -77 199 -72 q 179 -58 168 -18 q 156 21 150 76 q 144 130 141 194 q 138 259 136 324 q 133 390 128 452 q 124 513 114 560 q 104 607 86 636 q 69 664 41 664 q 13 664 -6 648 q -25 632 -36 608 q -47 584 -52 557 q -57 530 -57 508 q -57 489 -54 472 q -51 455 -46 437 z"},"A":{"x_min":0,"x_max":644,"ha":644,"o":"m 490 386 q 467 310 436 231 q 406 152 370 88 q 333 23 290 -18 q 248 -59 201 -59 q 171 -59 148 -46 q 125 -32 108 -10 q 92 11 81 40 q 70 68 64 98 q 57 127 54 156 q 52 184 52 207 q 52 310 83 410 q 114 510 176 592 q 192 613 212 632 q 232 652 255 666 q 278 681 304 690 q 330 699 357 699 q 389 699 414 686 q 438 673 457 652 q 476 630 490 604 q 503 577 512 550 q 517 571 523 590 q 529 608 536 625 q 540 632 546 632 q 553 632 553 625 l 553 623 q 548 600 539 565 q 530 530 519 488 q 509 428 506 367 q 503 306 503 251 q 503 220 504 174 q 506 128 512 80 q 519 32 532 -10 q 544 -53 566 -75 q 568 -77 568 -80 q 568 -85 564 -88 q 561 -91 557 -91 q 552 -91 546 -84 q 540 -78 537 -74 q 521 -52 510 -10 q 500 33 494 80 q 489 128 487 174 q 485 219 485 247 q 485 277 486 312 q 487 348 490 386 z m 502 494 q 502 497 503 498 l 503 507 q 504 508 504 511 q 502 513 502 514 q 494 543 482 572 q 471 602 453 626 q 435 650 410 666 q 385 681 350 681 q 320 681 292 668 q 265 656 242 637 q 199 603 166 552 q 134 501 112 443 q 91 385 80 325 q 70 265 70 211 q 70 191 72 165 q 75 139 80 111 q 86 83 96 56 q 106 28 120 6 q 135 -15 156 -28 q 176 -41 203 -41 q 237 -41 269 -16 q 301 10 330 52 q 358 95 384 150 q 409 205 430 264 q 452 324 470 384 q 488 443 502 494 z"},"f":{"x_min":0,"x_max":290,"ha":290,"o":"m 63 34 q 115 -3 140 -56 q 164 -109 164 -172 q 164 -187 162 -202 q 159 -217 152 -229 q 146 -241 134 -248 q 122 -256 103 -256 q 81 -256 66 -242 q 51 -227 41 -204 q 31 -181 26 -152 q 21 -124 18 -96 q 16 -68 16 -44 q 15 -19 15 -4 q 15 32 15 82 q 15 133 18 190 q 20 247 25 306 q 30 365 40 418 q 51 472 68 516 q 84 561 108 587 q 132 613 168 613 q 185 613 196 606 q 206 598 212 586 q 218 575 220 561 q 223 547 223 533 q 223 498 210 461 q 197 424 176 389 q 155 354 129 323 q 103 292 77 270 q 72 266 60 255 q 49 244 39 238 q 36 181 35 130 q 34 80 34 45 q 47 48 56 50 q 65 53 73 56 q 81 58 90 62 q 98 65 110 71 q 159 96 202 130 q 245 165 278 209 q 286 220 292 231 q 299 242 307 253 q 311 259 317 259 q 324 259 324 252 q 324 249 320 241 q 315 233 309 224 q 303 216 298 208 q 292 200 290 197 q 271 172 244 146 q 218 121 188 100 q 158 78 126 60 q 94 43 63 34 z m 40 260 q 51 269 62 278 q 74 288 85 299 q 107 320 128 348 q 150 375 167 406 q 184 437 194 470 q 205 502 205 533 q 205 555 196 575 q 187 595 161 595 q 131 595 110 566 q 89 536 74 488 q 60 441 52 381 q 44 321 40 260 z m 34 23 l 34 0 q 34 -13 34 -36 q 35 -58 37 -84 q 39 -111 44 -138 q 48 -165 56 -188 q 65 -210 78 -224 q 91 -238 110 -238 q 122 -238 130 -232 q 137 -226 140 -216 q 144 -207 145 -196 q 146 -185 146 -176 q 146 -127 128 -80 q 111 -34 75 0 q 65 9 56 15 q 46 21 34 23 z"},"Q":{"x_min":0,"x_max":689,"ha":689,"o":"m 222 -199 q 192 -223 161 -223 q 157 -223 150 -222 q 144 -220 138 -218 q 131 -215 126 -212 q 122 -208 122 -203 q 122 -195 132 -190 q 142 -186 154 -184 q 167 -182 180 -182 q 192 -181 197 -181 l 219 -181 q 231 -170 242 -158 q 252 -146 260 -136 q 268 -125 276 -114 q 284 -102 292 -90 q 226 -79 181 -40 q 136 0 108 54 q 80 109 68 172 q 56 236 56 294 q 56 385 84 474 q 112 562 175 630 q 211 668 260 692 q 308 715 362 715 q 398 715 430 704 q 463 693 488 672 q 512 651 526 621 q 541 591 541 553 q 563 532 578 504 q 594 476 604 444 q 613 412 618 379 q 622 346 622 314 q 622 243 605 175 q 588 107 552 46 q 515 -16 456 -54 q 397 -93 323 -93 l 314 -92 l 310 -92 q 309 -94 308 -94 q 308 -95 307 -97 l 302 -106 q 277 -147 242 -181 q 291 -182 340 -184 q 390 -185 439 -188 q 467 -190 496 -191 q 524 -192 552 -195 q 558 -195 558 -202 q 558 -207 554 -210 q 551 -213 547 -213 l 546 -213 q 465 -208 384 -204 q 303 -200 222 -199 z m 303 -73 q 335 -22 364 38 q 392 99 416 162 q 441 224 461 285 q 481 346 495 398 q 505 433 514 469 q 522 505 523 542 q 501 560 476 570 q 451 581 422 581 q 391 581 368 570 q 344 559 327 546 q 310 532 300 521 q 290 510 285 510 q 278 510 278 517 q 278 522 284 528 q 289 534 292 537 q 318 563 350 581 q 383 599 421 599 q 451 599 476 591 q 502 583 522 569 q 518 599 504 623 q 489 647 466 664 q 444 680 416 688 q 388 697 358 697 q 287 697 228 655 q 187 626 158 585 q 128 544 110 496 q 91 448 82 397 q 74 346 74 298 q 74 243 86 182 q 98 120 125 66 q 152 12 196 -26 q 239 -65 303 -73 z m 320 -75 q 395 -75 449 -40 q 503 -4 538 52 q 572 108 588 176 q 604 245 604 310 q 604 337 601 366 q 598 395 590 424 q 583 452 570 478 q 558 504 539 525 q 531 459 509 380 q 487 300 457 220 q 427 139 392 62 q 356 -14 320 -75 z m 149 -202 q 159 -206 166 -206 q 173 -206 179 -204 q 185 -202 192 -199 q 170 -199 149 -202 z"},"w":{"x_min":0,"x_max":456,"ha":456,"o":"m 156 97 q 152 81 146 62 q 139 43 128 26 q 118 10 104 -1 q 89 -12 69 -12 q 48 -12 36 5 q 24 22 18 46 q 13 69 12 94 q 10 118 10 133 q 10 175 14 217 q 18 259 26 301 q 28 309 29 317 q 30 325 32 333 q 34 342 43 342 q 50 342 50 335 l 50 333 q 41 284 34 236 q 28 188 28 137 q 28 125 29 104 q 30 82 35 60 q 40 38 50 22 q 59 6 76 6 q 94 6 107 24 q 120 41 129 68 q 138 94 144 125 q 150 156 153 184 q 154 201 156 220 q 157 238 160 256 q 162 273 164 288 q 167 303 170 313 q 174 322 181 322 q 188 322 188 315 l 188 314 q 183 279 180 243 q 176 207 171 172 l 171 165 l 170 150 q 170 134 174 110 q 177 86 186 64 q 194 41 208 25 q 222 9 244 9 q 263 9 276 32 q 288 56 296 86 q 304 117 308 146 q 311 176 312 188 q 293 209 284 238 q 276 267 276 294 q 276 300 276 312 q 277 324 279 335 q 281 346 286 354 q 292 363 301 363 q 312 363 318 348 q 324 332 327 312 q 330 291 331 272 q 332 252 332 244 q 332 236 332 224 q 332 212 331 198 q 351 178 377 178 q 401 178 418 190 q 436 203 448 218 q 461 234 469 246 q 477 259 483 259 q 490 259 490 252 q 490 247 483 237 q 476 227 473 222 q 456 198 430 179 q 405 160 373 160 q 349 160 329 173 q 326 143 320 111 q 314 79 304 52 q 293 26 278 8 q 262 -9 240 -9 q 221 -9 207 0 q 193 10 182 26 q 172 41 166 60 q 159 79 156 97 z m 313 221 q 313 226 314 230 q 314 235 314 240 q 314 248 314 263 q 313 278 311 294 q 309 309 306 322 q 304 336 299 342 q 296 333 295 320 q 294 308 294 298 q 294 280 298 260 q 303 239 313 221 z"},"-":{"x_min":0,"x_max":409,"ha":409,"o":"m 113 217 q 113 222 116 224 q 120 227 124 227 l 296 228 q 303 228 303 221 q 303 216 300 214 q 296 211 292 211 l 121 210 q 113 210 113 217 z"},"E":{"x_min":0,"x_max":638,"ha":638,"o":"m 224 330 q 194 340 170 358 q 145 377 127 402 q 109 427 100 456 q 90 486 90 517 q 90 566 111 603 q 132 640 166 665 q 201 690 244 702 q 288 715 332 715 q 384 715 430 698 q 475 681 502 646 q 504 647 505 647 q 506 647 508 648 l 519 652 q 521 653 522 653 q 523 653 525 654 q 528 655 536 658 q 545 660 547 660 q 554 660 554 653 q 554 647 546 643 l 512 631 q 533 597 533 545 q 533 520 526 495 q 519 470 506 450 q 492 429 471 416 q 450 404 421 404 q 392 404 372 426 q 353 448 353 476 q 353 505 364 530 q 375 554 393 574 q 411 594 434 610 q 458 625 483 637 q 457 668 416 682 q 375 697 328 697 q 288 697 249 686 q 210 676 178 654 q 147 632 128 599 q 108 566 108 521 q 108 467 138 421 q 167 375 217 353 q 230 348 242 345 q 255 342 269 338 q 274 336 274 331 q 274 322 264 320 q 247 316 230 313 q 214 310 197 303 q 128 276 88 220 q 48 165 48 90 q 48 45 66 12 q 83 -22 112 -44 q 141 -66 179 -77 q 217 -88 258 -88 q 332 -88 401 -58 q 470 -28 518 29 q 528 40 535 52 q 542 64 550 76 q 554 82 560 82 q 567 82 567 75 q 567 73 564 68 q 561 62 558 56 q 554 49 550 44 q 547 38 545 36 q 494 -32 416 -69 q 338 -106 254 -106 q 210 -106 170 -94 q 129 -82 98 -58 q 67 -34 48 2 q 30 38 30 86 q 30 131 44 170 q 59 210 84 242 q 110 273 146 296 q 182 318 224 330 z m 493 624 q 471 614 450 600 q 428 587 411 570 q 394 552 383 530 q 372 508 372 482 q 372 456 388 439 q 403 422 429 422 q 452 422 468 434 q 484 445 494 462 q 505 480 510 501 q 515 522 515 541 q 515 589 493 624 z"},"s":{"x_min":0,"x_max":268,"ha":268,"o":"m 117 96 q 107 127 86 157 q 66 187 46 215 q 27 243 12 269 q -3 295 -3 319 q -3 328 0 338 q 3 347 9 355 q 15 363 23 368 q 31 373 40 373 q 56 373 62 360 q 68 347 68 334 q 68 330 66 320 q 64 309 60 297 q 57 285 52 274 q 47 262 42 256 q 63 224 90 186 q 117 149 132 108 q 175 140 214 173 q 254 206 285 253 q 289 259 295 259 q 302 259 302 252 q 302 248 296 240 q 291 232 289 228 q 269 199 240 174 q 212 150 184 128 q 166 115 137 92 q 143 71 143 51 q 143 31 134 6 q 126 -18 112 -39 q 97 -60 78 -74 q 58 -88 35 -88 q 15 -88 5 -77 q -5 -66 -5 -46 q -5 -29 7 -10 q 19 8 36 26 q 52 43 70 58 q 88 73 100 83 z m 31 274 q 36 286 43 301 q 50 316 50 330 q 50 336 47 346 q 44 355 36 355 q 26 355 20 342 q 15 329 15 321 q 15 310 19 299 q 23 288 31 274 z m 121 80 q 102 65 83 48 q 64 32 48 16 q 33 -1 23 -16 q 13 -32 13 -45 q 13 -57 20 -64 q 28 -70 39 -70 q 58 -70 74 -58 q 90 -45 101 -26 q 112 -8 118 13 q 125 34 125 50 q 125 58 124 65 q 123 72 121 80 z"},">":{"x_min":0,"x_max":496,"ha":496,"o":"m 181 442 q 178 444 178 448 q 178 453 182 456 q 185 459 189 459 q 190 459 203 452 q 216 444 236 432 q 256 420 280 406 q 303 392 324 380 q 345 367 360 358 q 375 348 379 345 q 382 342 382 339 q 382 334 368 324 q 353 314 331 302 q 309 291 282 278 q 255 266 230 256 q 206 245 186 237 q 167 229 159 226 q 158 225 155 225 q 148 225 148 232 q 148 239 155 242 q 169 249 184 254 q 200 260 214 266 q 251 281 287 298 q 323 314 357 335 z"},"l":{"x_min":0,"x_max":280,"ha":280,"o":"m 35 245 q 35 231 34 219 q 34 207 34 199 q 34 182 35 150 q 36 119 42 88 q 49 56 62 32 q 76 9 101 9 q 127 9 152 30 q 178 51 200 80 q 222 110 240 141 q 257 172 267 192 q 275 207 282 222 q 289 238 297 252 q 301 259 307 259 q 314 259 314 252 q 314 249 313 248 q 300 219 278 176 q 256 132 228 91 q 199 50 165 20 q 131 -9 94 -9 q 65 -9 49 16 q 33 41 26 75 q 18 109 17 144 q 16 179 16 199 q 16 223 17 266 q 18 308 22 358 q 26 409 34 461 q 43 513 58 556 q 74 598 98 625 q 121 652 154 652 q 169 652 180 645 q 191 638 198 627 q 204 616 207 602 q 210 589 210 576 q 210 542 196 500 q 181 457 159 415 q 137 373 111 335 q 85 297 62 272 q 58 268 50 259 q 43 250 35 245 z m 35 269 q 61 297 88 334 q 116 372 139 412 q 162 453 177 494 q 192 536 192 572 q 192 583 190 594 q 188 605 182 614 q 177 623 168 628 q 160 634 147 634 q 125 634 108 616 q 92 598 80 568 q 68 539 60 500 q 52 462 47 422 q 42 381 39 341 q 36 301 35 269 z"},"8":{"x_min":0,"x_max":2103,"ha":2103,"o":"m 293 256 l 293 298 q 293 301 291 303 l 187 409 l 187 409 l 187 208 q 187 191 193 191 l 137 191 q 143 191 143 208 l 143 453 q 143 468 137 470 l 193 470 q 191 470 191 468 q 191 463 193 456 q 195 449 203 441 l 290 353 q 293 350 293 353 l 293 469 q 293 485 287 486 l 346 486 q 344 486 340 481 q 337 476 337 469 l 337 256 z m 212 151 q 214 151 216 156 q 218 161 218 168 l 218 370 l 262 325 l 262 260 q 262 252 264 252 q 267 251 273 251 l 355 251 q 362 251 365 252 q 368 252 368 260 l 368 441 q 368 448 366 453 q 365 458 362 458 l 418 458 q 416 458 414 453 q 412 448 412 441 l 412 184 q 412 167 418 167 l 362 167 q 368 167 368 184 l 368 211 q 368 219 365 220 q 362 220 355 220 l 273 220 q 267 220 264 220 q 262 219 262 211 l 262 168 q 262 161 264 156 q 265 151 268 151 z m 337 215 l 337 184 q 337 177 339 172 q 341 167 343 167 l 287 167 q 293 169 293 184 l 293 215 z m 218 469 q 218 484 212 486 l 268 486 q 265 486 264 481 q 262 476 262 469 l 262 389 l 218 433 z m 47 319 q 47 398 64 447 q 80 496 110 523 q 141 550 184 560 q 226 569 278 569 q 330 569 372 560 q 415 550 445 523 q 475 496 492 447 q 508 398 508 319 q 508 240 492 191 q 475 142 445 114 q 415 87 372 78 q 330 68 278 68 q 226 68 184 78 q 141 87 110 114 q 80 142 64 191 q 47 240 47 319 z m 79 319 q 79 246 92 202 q 106 157 132 132 q 158 108 195 100 q 232 92 278 92 q 324 92 361 100 q 398 108 424 132 q 449 157 462 202 q 476 246 476 319 q 476 392 462 436 q 449 481 424 505 q 398 529 361 537 q 324 545 278 545 q 232 545 195 537 q 158 529 132 504 q 106 480 92 436 q 79 391 79 319 z m 880 317 q 880 257 846 214 q 811 170 753 158 q 736 154 718 154 q 701 153 684 153 l 568 153 l 568 483 l 687 483 q 728 483 763 474 q 798 465 824 445 q 850 425 865 394 q 880 362 880 317 z m 792 319 q 792 348 784 368 q 775 387 760 399 q 745 411 723 416 q 701 421 674 421 l 653 421 l 653 215 l 674 215 q 729 215 760 237 q 792 259 792 319 z m 945 153 l 945 483 l 1184 483 l 1184 419 l 1030 419 l 1030 362 l 1173 362 l 1173 299 l 1030 299 l 1030 217 l 1184 217 l 1184 153 z m 1517 153 l 1517 374 l 1456 230 l 1397 230 l 1335 374 l 1335 153 l 1255 153 l 1255 483 l 1354 483 l 1428 317 l 1503 483 l 1602 483 l 1602 153 z m 2007 318 q 2007 238 1962 192 q 1917 146 1837 146 q 1757 146 1712 192 q 1667 238 1667 318 q 1667 398 1712 444 q 1757 490 1837 490 q 1917 490 1962 444 q 2007 397 2007 318 z m 1837 208 q 1860 208 1876 218 q 1892 228 1902 244 q 1911 259 1915 279 q 1919 299 1919 318 q 1919 338 1915 358 q 1911 377 1902 392 q 1892 408 1876 418 q 1860 428 1837 428 q 1814 428 1798 418 q 1782 408 1772 392 q 1763 377 1759 358 q 1755 338 1755 318 q 1755 299 1759 279 q 1763 259 1772 244 q 1782 228 1798 218 q 1814 208 1837 208 z"},"\\":{"x_min":0,"x_max":415,"ha":415,"o":"m 51 682 q 51 689 58 689 q 66 689 69 681 q 76 662 82 641 q 87 620 93 600 q 106 558 119 516 q 132 475 146 433 l 251 111 q 254 103 260 82 q 267 62 276 36 q 284 10 294 -19 q 303 -48 310 -73 q 318 -98 323 -116 q 328 -133 328 -137 q 328 -144 321 -144 q 314 -144 310 -135 q 309 -133 309 -132 q 309 -130 308 -128 l 305 -115 q 304 -113 304 -112 q 304 -110 303 -108 q 302 -103 298 -93 l 289 -63 q 287 -59 286 -56 q 286 -52 284 -48 l 129 431 q 127 439 120 460 q 113 480 104 506 q 96 533 86 562 q 77 592 69 618 q 61 643 56 661 q 51 679 51 682 z"},"e":{"x_min":0,"x_max":309,"ha":309,"o":"m 7 142 q 5 136 5 130 q 5 124 5 119 q 5 98 10 76 q 15 53 26 34 q 36 14 53 2 q 70 -11 95 -11 q 127 -11 157 10 q 187 32 213 63 q 239 94 260 128 q 280 161 293 186 q 295 191 298 195 q 300 199 302 203 l 317 236 q 319 241 322 244 q 324 248 326 252 q 330 259 336 259 q 343 259 343 251 l 342 249 q 332 226 317 196 q 302 167 284 136 q 266 105 244 76 q 222 46 197 22 q 172 -1 145 -15 q 118 -29 89 -29 q 62 -29 42 -15 q 23 -1 10 20 q -2 41 -8 66 q -13 92 -13 115 q -13 144 -4 182 q 4 221 21 256 q 38 290 64 314 q 90 338 126 338 q 152 338 168 318 q 184 299 184 274 q 184 261 180 248 q 176 234 169 223 q 144 183 104 162 q 63 142 16 142 z m 9 161 q 25 161 39 162 q 53 162 69 167 q 86 172 103 182 q 120 191 134 204 q 148 218 157 234 q 166 251 166 270 q 166 291 154 306 q 141 320 119 320 q 94 320 75 302 q 56 285 42 260 q 29 235 20 208 q 12 180 9 161 z"},"b":{"x_min":0,"x_max":420,"ha":420,"o":"m 35 124 q 41 149 52 185 q 62 221 80 254 q 97 288 121 312 q 145 336 176 336 q 200 336 216 322 q 232 307 242 286 q 252 265 256 241 q 261 217 261 199 q 261 180 258 154 q 256 127 249 99 q 294 123 336 150 q 377 178 410 216 q 418 225 424 234 q 430 243 437 253 q 441 259 447 259 q 454 259 454 252 q 454 248 450 242 q 447 236 445 233 q 407 180 354 144 q 301 109 244 79 q 237 56 228 34 q 218 12 204 -4 q 191 -21 174 -31 q 157 -41 136 -41 q 124 -41 114 -34 q 104 -28 104 -14 q 104 4 120 20 q 136 35 150 44 q 169 56 188 66 q 208 77 228 88 q 236 119 240 148 q 243 177 243 195 q 243 211 239 232 q 235 253 226 272 q 218 291 204 304 q 190 318 170 318 q 152 318 136 304 q 120 291 107 269 q 94 247 84 220 q 73 193 65 167 q 57 141 52 118 q 46 94 44 80 q 42 66 40 52 q 38 37 36 22 q 36 20 36 18 q 35 17 35 15 l 35 0 q 35 -2 34 -4 q 34 -5 34 -7 q 32 -18 23 -18 q 16 -18 16 -11 q 16 136 19 282 q 22 428 37 574 q 39 590 40 606 q 41 621 44 636 q 46 646 55 646 q 62 646 62 639 l 62 638 q 47 509 42 382 q 36 254 35 124 z m 222 67 q 205 58 187 48 q 169 37 154 26 q 140 16 131 6 q 122 -3 122 -10 q 122 -18 130 -20 q 137 -23 143 -23 q 172 -23 192 4 q 211 30 222 67 z"},"%":{"x_min":0,"x_max":710,"ha":710,"o":"m 176 10 q 176 14 186 36 q 196 59 212 94 q 228 130 249 175 q 270 220 292 267 q 315 314 338 360 q 360 407 378 446 q 397 484 410 512 q 424 540 429 550 q 443 579 456 608 q 469 636 483 664 q 487 671 493 671 q 500 671 500 664 q 500 661 484 626 q 468 591 443 538 q 418 486 388 425 q 359 364 332 308 q 306 253 286 212 q 266 171 260 159 q 246 131 233 104 q 220 76 208 47 q 204 38 200 28 q 197 17 192 8 q 189 3 183 3 q 176 3 176 10 z m 173 371 q 151 371 136 381 q 121 391 112 407 q 103 423 99 442 q 95 461 95 480 q 95 500 99 522 q 103 544 111 564 q 119 584 132 602 q 145 619 163 629 q 178 638 195 638 q 217 638 231 624 q 245 611 253 591 q 261 571 264 550 q 267 528 267 511 q 267 489 262 464 q 258 440 248 419 q 237 398 218 384 q 200 371 173 371 z m 177 389 q 199 389 213 401 q 227 413 235 431 q 243 449 246 470 q 249 490 249 507 q 249 521 246 540 q 244 559 238 577 q 231 595 220 608 q 208 620 190 620 q 169 620 154 605 q 140 590 131 568 q 122 547 118 524 q 113 500 113 484 q 113 469 116 452 q 119 435 126 421 q 134 407 146 398 q 158 389 177 389 z m 472 12 q 450 12 435 22 q 420 32 411 48 q 402 64 398 83 q 394 102 394 121 q 394 141 398 163 q 402 185 410 205 q 418 225 431 242 q 444 260 462 270 q 477 279 494 279 q 516 279 530 266 q 544 252 552 232 q 560 212 563 190 q 566 169 566 152 q 566 130 562 106 q 557 81 546 60 q 536 39 518 26 q 499 12 472 12 z m 476 30 q 498 30 512 42 q 526 54 534 72 q 542 90 545 110 q 548 131 548 148 q 548 162 546 181 q 543 200 536 218 q 530 236 518 248 q 507 261 489 261 q 468 261 454 246 q 439 231 430 210 q 421 188 416 164 q 412 141 412 125 q 412 110 415 93 q 418 76 426 62 q 433 48 445 39 q 457 30 476 30 z"},"m":{"x_min":0,"x_max":646,"ha":646,"o":"m 9 -18 q 14 14 14 45 q 14 76 15 108 l 15 118 l 16 138 l 16 148 l 18 227 l 18 237 l 19 257 l 19 267 q 19 283 18 303 q 18 323 20 338 q 22 349 31 349 q 38 349 38 342 q 38 279 36 216 q 35 154 33 91 q 39 117 50 160 q 62 203 80 244 q 98 286 123 316 q 148 346 182 346 q 205 346 218 323 q 232 300 239 268 q 246 235 248 200 q 250 166 250 143 q 259 179 273 214 q 287 248 306 276 q 325 303 349 320 q 373 336 402 336 q 422 336 434 324 q 445 312 450 295 q 456 278 458 258 q 459 239 459 225 q 459 214 459 202 q 459 191 458 180 l 456 150 q 455 139 455 128 q 455 116 455 105 q 455 93 456 76 q 456 60 460 45 q 465 30 474 20 q 483 9 499 9 q 525 9 546 28 q 567 46 584 74 q 600 102 614 134 q 627 166 638 194 q 648 222 657 240 q 666 259 673 259 q 680 259 680 251 l 679 249 q 662 208 646 168 q 630 128 611 90 q 602 72 591 54 q 580 37 565 23 q 550 9 532 0 q 514 -9 492 -9 q 472 -9 461 3 q 450 15 444 32 q 439 50 438 69 q 436 88 436 102 q 436 113 436 124 q 436 136 437 147 l 439 177 q 440 188 440 200 q 440 211 440 222 q 440 234 439 250 q 438 267 434 282 q 429 297 420 308 q 411 318 394 318 q 358 318 332 284 q 305 250 287 202 q 269 154 260 102 q 250 51 247 16 q 247 10 247 4 q 247 -2 246 -7 q 244 -18 235 -18 q 228 -18 228 -11 q 228 -6 228 0 q 228 7 229 14 q 230 40 231 67 q 232 94 232 121 q 232 136 231 170 q 230 204 225 240 q 220 275 208 302 q 196 328 175 328 q 157 328 140 312 q 124 295 110 270 q 97 244 86 212 q 74 181 66 150 q 57 120 51 94 q 45 69 42 55 q 38 39 35 18 q 32 -3 27 -17 q 23 -26 16 -26 q 9 -26 9 -19 z"},"#":{"x_min":0,"x_max":643,"ha":643,"o":"m 160 -32 q 172 22 184 75 q 197 128 209 182 l 144 182 q 122 182 100 182 q 77 181 55 183 q 48 183 48 190 q 48 201 59 201 q 97 201 136 201 q 175 201 213 200 q 221 232 228 263 q 234 294 241 326 l 242 333 q 181 332 117 327 l 116 327 q 109 327 109 334 q 109 343 120 345 q 135 348 152 348 q 169 348 184 349 q 200 350 215 350 q 230 351 246 351 l 273 476 q 277 495 280 514 q 284 533 289 552 q 291 561 300 561 q 307 561 307 554 l 307 552 q 296 501 286 452 q 275 402 264 351 q 280 351 296 352 q 311 352 327 352 l 439 352 q 446 378 453 403 q 460 428 468 454 q 473 473 478 493 q 483 513 490 532 q 493 540 501 540 q 508 540 508 533 q 508 532 503 512 q 498 493 490 466 q 483 439 474 408 q 465 377 458 351 l 472 351 q 488 351 504 352 q 521 352 537 350 q 544 350 544 343 q 544 332 533 332 l 481 332 l 451 328 q 448 317 446 310 q 444 303 443 299 q 436 273 430 248 q 423 223 417 197 q 445 196 472 195 q 498 194 517 191 q 523 189 523 184 q 523 173 512 173 l 511 173 q 461 178 413 179 q 409 161 406 143 q 402 125 399 107 q 397 90 394 74 q 392 59 391 42 l 391 35 l 390 21 l 390 14 q 388 3 379 3 q 372 3 372 10 q 372 52 378 94 q 384 137 394 179 q 378 179 362 180 q 347 180 331 180 q 305 181 279 181 q 253 181 227 181 q 219 146 212 112 q 204 78 196 43 q 191 24 187 5 q 183 -14 178 -32 q 176 -41 167 -41 q 160 -41 160 -34 z m 376 334 q 347 334 318 334 q 289 334 260 333 q 252 299 246 266 q 239 233 231 199 q 257 198 283 198 q 309 198 335 198 q 349 198 365 198 q 381 197 398 197 q 404 223 411 248 q 418 274 425 299 q 427 307 430 316 q 432 325 434 333 z"},",":{"x_min":0,"x_max":149,"ha":149,"o":"m 60 10 q 55 12 55 17 q 55 23 59 28 q 63 34 70 34 q 81 34 81 23 q 81 17 75 5 q 69 -7 60 -20 q 52 -33 44 -42 q 35 -52 29 -52 q 22 -52 22 -45 q 22 -42 27 -35 q 32 -28 39 -20 q 46 -12 52 -4 q 58 4 60 10 z"},"n":{"x_min":0,"x_max":440,"ha":440,"o":"m 35 122 q 42 150 54 187 q 67 224 86 257 q 106 290 133 313 q 160 336 196 336 q 216 336 228 324 q 239 312 244 295 q 250 278 252 258 q 253 239 253 225 q 253 214 253 202 q 253 191 252 180 l 250 150 q 249 139 249 128 q 249 116 249 105 q 249 93 250 76 q 250 60 254 45 q 259 30 268 20 q 277 9 293 9 q 319 9 340 28 q 361 46 378 74 q 395 102 408 134 q 421 166 432 194 q 442 222 451 240 q 460 259 467 259 q 474 259 474 251 l 473 249 q 456 208 440 168 q 424 128 405 90 q 396 72 385 54 q 374 37 359 22 q 344 8 326 0 q 308 -9 286 -9 q 266 -9 255 3 q 244 15 238 32 q 233 50 232 69 q 230 88 230 102 q 230 113 230 124 q 230 136 231 147 l 233 177 q 234 188 234 200 q 234 211 234 222 q 234 234 233 250 q 232 267 228 282 q 223 297 214 308 q 205 318 188 318 q 164 318 144 302 q 124 286 108 260 q 91 235 79 203 q 67 171 58 138 q 49 105 44 75 q 38 45 36 24 q 35 16 36 8 q 36 1 34 -7 q 32 -18 23 -18 q 16 -18 16 -11 l 16 87 q 16 132 16 175 q 17 218 19 263 q 20 280 21 300 q 22 319 25 335 q 27 345 36 345 q 43 345 43 338 l 43 337 q 38 283 37 230 q 36 176 35 122 z"},"h":{"x_min":0,"x_max":440,"ha":440,"o":"m 37 130 q 44 157 56 193 q 69 229 88 260 q 108 292 134 314 q 161 336 196 336 q 216 336 228 324 q 239 312 244 295 q 250 278 252 258 q 253 239 253 225 q 253 214 253 202 q 253 191 252 180 l 250 150 q 249 139 249 128 q 249 116 249 105 q 249 93 250 76 q 250 60 254 45 q 259 30 268 20 q 277 9 293 9 q 319 9 340 28 q 361 46 378 74 q 395 102 408 134 q 421 166 432 194 q 442 222 451 240 q 460 259 467 259 q 474 259 474 251 l 473 249 q 456 208 440 168 q 424 128 405 90 q 396 72 385 54 q 374 37 359 23 q 344 9 326 0 q 308 -9 286 -9 q 266 -9 255 3 q 244 15 238 32 q 233 50 232 69 q 230 88 230 102 q 230 113 230 124 q 230 136 231 147 l 233 177 q 234 188 234 200 q 234 211 234 222 q 234 234 233 250 q 232 267 228 282 q 223 297 214 308 q 205 318 188 318 q 152 318 124 284 q 97 249 78 201 q 60 153 50 102 q 39 52 36 19 l 35 16 l 35 14 l 35 0 l 35 -2 l 34 -5 q 32 -18 23 -18 q 16 -18 16 -11 q 16 93 20 196 q 24 299 29 403 q 31 447 33 490 q 35 533 38 577 q 40 595 40 616 q 40 636 44 654 q 46 664 55 664 q 62 664 62 657 l 62 656 q 57 600 54 545 q 51 490 49 434 q 41 282 37 130 z"},"z":{"x_min":0,"x_max":388,"ha":388,"o":"m 165 14 q 147 31 124 40 q 102 50 77 50 q 73 50 68 50 q 64 51 64 57 q 64 62 74 70 q 84 79 99 91 q 114 103 132 118 q 150 133 165 152 q 180 170 190 192 q 200 214 200 239 q 200 269 187 288 q 174 308 141 308 q 123 308 104 297 q 84 286 68 272 q 51 259 39 248 q 27 237 23 237 q 16 237 16 244 q 16 249 26 258 q 35 268 40 272 q 60 290 88 308 q 117 326 145 326 q 185 326 202 303 q 218 280 218 243 q 218 213 207 188 q 196 164 178 142 q 160 121 138 102 q 117 84 96 67 q 119 65 140 55 q 162 45 179 29 q 196 46 212 62 q 229 78 246 95 q 264 112 286 132 q 308 151 330 172 q 351 192 371 213 q 391 234 405 253 q 409 259 415 259 q 422 259 422 252 q 422 247 414 236 q 405 225 401 221 q 356 173 300 123 q 243 73 189 19 q 212 -5 225 -36 q 238 -66 238 -98 q 238 -118 234 -137 q 231 -156 226 -174 q 220 -196 206 -222 q 192 -247 174 -269 q 155 -291 132 -306 q 109 -320 83 -320 q 66 -320 53 -312 q 40 -305 31 -293 q 22 -281 18 -266 q 13 -251 13 -235 q 13 -192 33 -152 q 53 -113 79 -81 q 99 -56 120 -32 q 142 -9 165 14 z m 175 5 q 140 -31 110 -68 q 79 -104 58 -141 q 46 -161 38 -184 q 31 -207 31 -231 q 31 -259 46 -280 q 60 -302 91 -302 q 105 -302 116 -296 q 128 -289 138 -281 q 156 -266 172 -245 q 187 -224 198 -200 q 208 -176 214 -151 q 220 -126 220 -102 q 220 -73 208 -45 q 195 -17 175 5 z"},"B":{"x_min":0,"x_max":601,"ha":601,"o":"m 177 66 q 179 52 180 40 q 180 28 183 15 q 195 -33 232 -64 q 268 -95 319 -95 q 363 -95 397 -76 q 431 -56 454 -24 q 477 7 490 46 q 502 86 502 125 q 502 155 494 186 q 486 217 470 246 q 455 274 434 297 q 412 320 385 335 q 362 317 334 306 q 306 296 275 296 q 268 296 259 297 q 250 298 242 302 q 235 305 230 311 q 224 317 224 326 q 224 341 234 350 q 244 359 258 364 q 272 369 288 370 q 303 372 314 372 q 334 372 351 368 q 368 364 385 356 q 405 374 421 397 q 437 420 448 446 q 459 471 465 498 q 471 524 471 549 q 471 574 464 599 q 457 624 443 644 q 429 665 408 678 q 387 691 359 691 q 312 691 278 650 q 243 609 219 544 q 195 479 180 398 q 166 317 157 238 q 148 159 144 90 q 141 20 140 -22 q 139 -36 140 -50 q 140 -63 138 -76 q 136 -87 127 -87 q 120 -87 120 -80 q 120 -36 122 8 q 123 51 124 95 q 126 188 128 279 q 129 370 129 463 q 129 482 128 518 q 126 554 119 590 q 112 626 97 652 q 82 679 55 679 q 28 679 10 658 q -9 636 -20 606 q -32 577 -36 546 q -41 515 -41 495 q -41 449 -30 414 q -18 378 19 348 q 22 347 22 342 q 22 331 11 331 q 8 331 7 332 q -32 362 -46 402 q -59 443 -59 491 q -59 518 -53 554 q -47 589 -32 621 q -18 653 5 675 q 28 697 62 697 q 83 697 97 684 q 111 671 120 650 q 130 629 136 604 q 141 578 144 552 q 146 526 146 504 q 147 481 147 467 q 147 424 147 381 q 147 338 146 295 q 150 325 156 367 q 162 409 174 455 q 185 501 201 546 q 217 592 240 628 q 264 664 295 686 q 326 709 366 709 q 396 709 419 695 q 442 681 458 658 q 473 636 481 608 q 489 580 489 553 q 489 526 483 498 q 477 470 466 443 q 454 416 438 392 q 422 367 401 348 q 429 332 451 308 q 473 283 488 254 q 504 225 512 193 q 520 161 520 129 q 520 84 506 41 q 491 -2 464 -36 q 437 -71 398 -92 q 360 -113 312 -113 q 276 -113 248 -98 q 219 -84 200 -60 q 180 -35 170 -4 q 159 28 159 62 q 159 73 170 73 q 177 73 177 66 z m 368 343 q 340 354 310 354 q 305 354 294 353 q 282 352 270 350 q 259 347 250 342 q 242 338 242 330 q 242 324 246 321 q 251 318 257 316 q 263 315 269 314 q 275 314 279 314 q 304 314 326 322 q 348 329 368 343 z"},"K":{"x_min":0,"x_max":563,"ha":563,"o":"m 54 494 q 54 499 58 502 q 61 505 65 505 q 70 505 72 500 q 77 486 81 471 q 85 456 90 441 q 98 417 108 393 q 117 369 128 346 l 128 375 l 129 434 l 129 463 q 129 482 128 518 q 126 554 119 590 q 112 626 97 652 q 82 679 55 679 q 28 679 10 658 q -9 636 -20 606 q -32 577 -36 546 q -41 515 -41 495 q -41 449 -29 414 q -17 378 19 348 q 22 347 22 342 q 22 331 11 331 q 8 331 7 332 q -32 362 -46 402 q -59 443 -59 491 q -59 517 -53 552 q -47 588 -32 620 q -18 652 5 674 q 28 697 62 697 q 83 697 97 684 q 111 671 120 650 q 130 629 136 604 q 141 578 144 552 q 146 526 146 504 q 147 481 147 467 q 147 427 147 388 q 147 349 146 309 q 158 286 171 263 q 184 240 199 216 q 226 282 258 350 q 291 418 328 482 q 364 545 403 602 q 442 658 480 700 q 483 704 488 710 q 494 715 499 715 q 506 715 506 708 q 506 703 503 700 q 463 658 422 600 q 381 541 342 474 q 304 407 270 336 q 236 265 210 198 q 233 163 268 118 q 302 74 344 34 q 387 -6 434 -33 q 481 -60 528 -60 q 533 -60 538 -60 q 543 -60 543 -67 q 543 -75 536 -76 q 528 -78 523 -78 q 476 -78 428 -52 q 381 -25 338 14 q 295 52 260 96 q 224 140 201 175 q 181 123 164 66 q 146 9 141 -47 l 139 -67 q 139 -74 138 -77 q 136 -87 127 -87 q 120 -87 120 -80 q 120 -36 122 8 q 123 51 124 95 q 126 147 126 198 q 127 249 128 301 q 104 350 85 398 q 66 446 54 492 z m 142 50 q 151 82 163 118 q 175 154 190 192 q 178 210 168 228 q 157 247 146 266 q 145 212 144 158 q 144 104 142 50 z"},"R":{"x_min":0,"x_max":607,"ha":607,"o":"m 71 494 q 71 499 74 502 q 78 505 82 505 q 87 505 89 500 q 94 486 98 471 q 102 456 107 441 q 112 427 117 413 q 122 399 128 385 l 128 405 l 129 444 l 129 463 q 129 482 128 518 q 126 554 119 590 q 112 626 97 652 q 82 679 55 679 q 28 679 10 658 q -9 636 -20 606 q -32 577 -36 546 q -41 515 -41 495 q -41 449 -29 414 q -17 378 19 348 q 22 347 22 342 q 22 331 11 331 q 8 331 7 332 q -32 362 -46 402 q -59 443 -59 491 q -59 517 -53 552 q -47 588 -32 620 q -18 652 5 674 q 28 697 62 697 q 83 697 97 684 q 111 671 120 650 q 130 629 136 604 q 141 578 144 552 q 146 526 146 504 q 147 481 147 467 l 147 343 q 148 341 148 340 q 149 338 151 336 l 157 321 q 160 317 161 313 q 169 353 180 398 q 190 443 204 487 q 219 531 238 571 q 256 611 280 642 q 303 673 332 691 q 361 709 396 709 q 439 709 466 684 q 492 660 507 624 q 522 589 528 548 q 533 508 533 475 q 533 426 522 373 q 512 320 488 276 q 463 233 424 205 q 384 177 325 177 q 266 177 222 206 q 245 170 280 124 q 315 78 358 37 q 401 -4 449 -32 q 497 -60 545 -60 q 550 -60 555 -60 q 560 -60 560 -67 q 560 -75 552 -76 q 545 -78 540 -78 q 503 -78 465 -62 q 427 -45 391 -18 q 355 10 322 46 q 289 81 260 118 q 231 155 208 190 q 185 226 169 254 q 158 185 152 116 q 145 48 141 -21 q 140 -35 140 -48 q 140 -62 138 -76 q 136 -87 127 -87 q 120 -87 120 -80 q 120 -36 122 8 q 123 51 124 95 q 126 155 126 216 q 127 276 128 336 q 110 376 96 415 q 82 454 71 492 z m 178 281 q 207 239 241 217 q 275 195 329 195 q 383 195 419 222 q 455 248 476 289 q 497 330 506 378 q 515 427 515 471 q 515 500 510 538 q 506 576 492 610 q 479 644 455 668 q 431 691 392 691 q 346 691 310 654 q 275 616 248 558 q 222 499 204 427 q 187 355 175 287 z m 145 213 q 147 227 150 244 q 152 261 155 281 l 146 298 q 146 277 146 256 q 146 234 145 213 z"},"T":{"x_min":0,"x_max":381,"ha":381,"o":"m 23 442 q -3 463 -20 487 q -36 511 -36 546 q -36 588 -18 616 q -1 645 27 664 q 55 682 92 692 q 128 703 166 708 q 205 713 242 714 q 279 715 308 715 q 348 715 391 714 q 434 712 472 701 q 477 699 477 694 q 477 689 474 686 q 470 683 466 683 l 464 683 q 423 691 384 694 q 346 697 304 697 q 289 697 271 697 q 253 697 233 696 q 237 678 239 656 q 241 633 242 609 q 243 585 243 562 q 243 540 243 522 q 243 389 240 258 q 236 126 226 -6 q 225 -23 224 -40 q 224 -58 221 -74 q 219 -84 210 -84 q 203 -84 203 -77 l 203 -76 q 215 72 220 222 q 225 371 225 520 q 225 565 223 608 q 221 650 214 695 q 174 693 133 686 q 92 679 58 663 q 25 647 4 620 q -18 592 -18 550 q -18 527 -9 510 q 0 492 10 480 q 21 468 30 461 q 39 454 39 451 q 39 440 28 440 q 25 440 23 442 z"},"P":{"x_min":0,"x_max":600,"ha":600,"o":"m 145 213 q 147 230 150 253 q 154 276 159 302 l 159 305 q 166 345 176 390 q 187 436 202 481 q 216 526 235 567 q 254 608 278 640 q 301 671 330 690 q 360 709 396 709 q 439 709 466 685 q 492 661 507 626 q 522 590 528 550 q 533 509 533 476 q 533 444 528 406 q 523 367 512 328 q 502 289 485 253 q 468 217 444 189 q 419 161 387 144 q 355 127 314 127 q 308 127 298 128 q 288 130 278 133 q 267 136 258 140 q 248 143 243 147 q 186 185 168 242 q 149 112 141 -21 q 140 -35 140 -48 q 140 -62 138 -76 q 136 -87 127 -87 q 120 -87 120 -80 q 120 -36 122 8 q 123 51 124 95 q 126 188 128 279 q 129 370 129 463 q 129 482 128 518 q 126 554 119 590 q 112 626 97 652 q 82 679 55 679 q 28 679 10 658 q -9 636 -20 606 q -32 577 -36 546 q -41 515 -41 495 q -41 449 -29 414 q -17 378 19 348 q 22 347 22 342 q 22 331 11 331 q 8 331 7 332 q -32 362 -46 402 q -59 443 -59 491 q -59 517 -53 552 q -47 588 -32 620 q -18 652 5 674 q 28 697 62 697 q 83 697 97 684 q 111 671 120 650 q 130 629 136 604 q 141 578 144 552 q 146 526 146 504 q 147 481 147 467 q 147 404 147 340 q 147 276 145 213 z m 178 303 q 180 290 181 278 q 182 266 186 253 q 200 206 235 176 q 270 145 321 145 q 346 145 368 154 q 389 164 408 179 q 438 203 458 238 q 478 273 491 313 q 504 353 510 394 q 515 435 515 472 q 515 501 510 539 q 506 577 492 611 q 479 645 455 668 q 431 691 392 691 q 347 691 312 656 q 277 620 252 564 q 226 508 208 439 q 190 370 178 303 z"},"|":{"x_min":0,"x_max":228,"ha":228,"o":"m 139 -130 q 139 -135 136 -138 q 132 -141 127 -141 q 122 -141 120 -136 q 111 -106 106 -62 q 102 -18 100 30 q 98 77 98 122 q 98 168 98 201 l 98 217 q 98 304 99 389 q 100 474 102 561 l 104 675 q 104 687 104 700 q 104 712 105 724 q 107 735 116 735 q 123 735 123 728 q 123 596 120 466 q 116 336 116 204 q 116 120 118 36 q 121 -47 138 -129 z"},"t":{"x_min":0,"x_max":260,"ha":260,"o":"m 293 249 q 286 232 274 206 q 263 180 249 151 q 235 122 218 94 q 201 65 182 42 q 164 19 143 5 q 122 -9 100 -9 q 86 -9 78 -5 q 69 -1 58 7 q 42 20 34 50 q 25 81 21 117 q 17 153 16 188 q 16 222 16 242 l 16 244 q 16 283 18 322 q 20 360 24 399 l -32 399 q -39 399 -39 406 q -39 411 -36 414 q -32 417 -28 417 l 26 417 q 27 429 29 445 q 31 461 34 478 q 36 495 39 510 q 42 526 45 536 q 47 545 56 545 q 63 545 63 538 l 63 536 q 58 507 53 477 q 48 447 44 417 q 54 417 64 418 q 73 418 83 419 q 118 421 152 425 q 187 429 222 429 q 229 429 229 422 q 229 414 218 412 q 207 410 196 410 q 185 411 174 410 q 168 410 162 410 q 157 409 151 408 l 104 404 l 103 404 l 100 403 l 98 403 l 87 403 l 86 403 l 83 402 q 72 401 62 400 q 53 400 43 400 q 39 362 36 324 q 34 286 34 248 q 34 229 34 198 q 35 166 38 134 q 41 101 48 72 q 54 43 66 28 q 80 9 102 9 q 127 9 150 31 q 173 53 193 84 q 213 114 228 146 q 243 177 252 196 q 258 210 264 224 q 269 238 277 252 q 281 259 287 259 q 294 259 294 251 z"},"M":{"x_min":0,"x_max":847,"ha":847,"o":"m 21 442 q 21 437 18 434 q 14 431 10 431 q 4 431 0 442 q -3 453 -5 466 q -7 480 -8 494 q -8 507 -8 511 q -8 538 -2 570 q 4 601 18 628 q 33 654 56 672 q 79 689 112 689 q 147 689 164 666 q 180 642 189 612 q 197 587 200 554 q 204 520 206 484 q 208 449 208 414 q 208 380 208 353 l 208 245 q 216 298 225 350 q 234 401 246 448 q 258 494 272 534 q 287 573 304 600 q 315 617 332 630 q 348 644 369 644 q 393 644 409 624 q 425 605 435 575 q 445 545 450 508 q 456 471 458 436 q 461 400 462 370 q 462 340 462 324 q 465 344 470 378 q 475 413 484 453 q 493 493 506 534 q 518 575 535 608 q 552 642 574 663 q 595 684 623 684 q 648 684 665 668 q 682 653 694 628 q 705 603 711 572 q 717 542 720 512 q 724 481 724 454 q 725 428 725 411 q 725 326 724 243 q 723 160 720 75 l 717 -17 q 717 -27 717 -36 q 717 -46 716 -56 q 714 -67 705 -67 q 698 -67 698 -60 q 698 -27 700 6 q 701 39 702 72 q 704 141 705 210 q 706 279 706 348 l 706 399 q 706 413 706 438 q 705 464 702 494 q 700 523 695 554 q 690 585 680 610 q 671 634 656 650 q 641 666 619 666 q 606 666 595 659 q 584 652 575 641 q 566 630 559 618 q 552 606 547 595 q 520 537 503 460 q 486 383 476 301 q 466 219 461 138 q 456 57 453 -11 q 453 -20 452 -28 q 452 -37 451 -46 q 449 -57 440 -57 q 433 -57 433 -50 q 433 -19 434 12 q 435 42 437 73 q 439 132 442 190 q 444 247 444 306 l 444 314 q 444 328 444 357 q 443 386 441 420 q 439 455 434 492 q 429 528 420 558 q 411 588 397 607 q 383 626 363 626 q 354 626 346 621 q 338 616 331 609 q 324 602 319 594 q 314 585 310 578 q 286 533 268 464 q 250 395 236 317 q 223 239 214 160 q 206 80 201 14 q 201 8 200 5 l 200 -13 q 199 -16 199 -22 q 198 -32 198 -42 q 198 -52 196 -62 q 194 -72 185 -72 q 178 -72 178 -65 l 178 -64 q 179 -47 180 -29 q 181 -11 183 10 q 188 99 189 188 q 190 276 190 365 q 190 388 190 428 q 189 469 185 512 q 181 554 174 592 q 167 629 153 647 q 144 659 134 665 q 124 671 108 671 q 80 671 61 655 q 42 639 31 615 q 20 591 15 564 q 10 537 10 515 q 10 496 13 479 q 16 462 21 444 z"},"g":{"x_min":0,"x_max":399,"ha":399,"o":"m 224 49 l 224 68 q 224 116 223 162 q 222 209 221 257 q 215 243 204 218 q 192 193 178 163 q 163 133 146 102 q 130 71 112 46 q 94 21 76 5 q 58 -11 42 -11 q 23 -11 11 2 q -1 14 -8 32 q -15 50 -17 70 q -19 90 -19 105 q -19 138 -10 177 q -1 216 18 250 q 36 283 65 306 q 94 328 134 328 q 159 328 180 312 q 200 295 209 272 q 213 280 216 288 q 219 295 224 303 q 228 310 234 310 q 241 310 241 303 l 241 295 l 239 280 l 239 272 l 239 224 l 242 128 l 242 80 l 242 68 q 259 85 276 102 q 292 119 309 136 q 337 165 365 193 q 393 221 416 253 q 420 259 426 259 q 433 259 433 252 q 433 246 418 228 q 403 210 384 190 q 365 169 347 150 q 329 132 323 126 q 318 121 313 116 q 308 110 303 105 l 262 64 q 257 59 252 54 q 247 48 242 43 q 242 0 239 -52 q 236 -105 228 -156 q 219 -208 203 -252 q 187 -296 159 -322 q 146 -334 129 -340 q 112 -345 95 -345 q 77 -345 64 -338 q 51 -330 42 -318 q 34 -306 30 -291 q 25 -276 25 -260 q 25 -234 33 -208 q 41 -183 54 -160 q 87 -103 132 -52 q 176 0 224 49 z m 196 241 q 192 255 188 268 q 183 280 175 290 q 167 299 156 304 q 144 310 127 310 q 93 310 69 289 q 45 268 30 237 q 14 206 6 171 q -1 136 -1 109 q -1 99 1 82 q 3 64 8 48 q 13 31 22 19 q 31 7 46 7 q 57 7 71 21 q 85 35 100 58 q 115 80 130 107 q 145 134 158 160 q 171 186 181 208 q 191 230 196 241 z m 224 23 q 220 19 216 15 q 213 11 209 7 l 179 -26 q 175 -30 172 -34 q 168 -38 164 -42 q 146 -62 125 -88 q 104 -113 86 -140 q 68 -168 56 -198 q 43 -227 43 -256 q 43 -284 58 -306 q 72 -327 103 -327 q 129 -327 148 -309 q 167 -291 180 -262 q 194 -233 202 -196 q 210 -159 215 -120 q 220 -81 222 -44 q 223 -6 224 23 z"},"j":{"x_min":0,"x_max":197,"ha":197,"o":"m 18 3 q 19 26 18 42 q 18 59 18 68 l 18 168 l 18 176 l 17 193 l 17 201 q 17 221 17 248 q 17 276 20 294 q 21 299 23 304 q 25 310 32 310 q 39 310 39 303 l 39 301 q 36 279 36 256 l 36 210 l 37 119 l 37 73 l 37 27 q 54 47 71 67 q 88 87 105 107 q 128 134 151 161 q 174 188 194 218 q 196 220 196 222 q 197 224 199 226 l 209 244 q 211 246 212 248 q 212 250 214 252 q 218 259 224 259 q 231 259 231 252 q 231 249 227 241 q 223 233 218 224 q 212 215 207 207 q 202 199 200 197 q 168 155 124 106 q 79 56 36 2 q 35 -37 33 -82 q 31 -127 26 -170 q 22 -213 14 -250 q 6 -288 -7 -313 q -14 -327 -26 -336 q -38 -345 -54 -345 q -68 -345 -77 -336 q -86 -326 -92 -312 q -97 -299 -100 -284 q -102 -270 -102 -259 q -102 -200 -77 -147 q -58 -106 -34 -69 q -10 -32 18 3 z m 17 -24 q -25 -81 -54 -140 q -84 -198 -84 -255 q -84 -263 -82 -275 q -81 -287 -76 -298 q -72 -310 -65 -318 q -58 -327 -47 -327 q -29 -327 -17 -296 q -5 -266 2 -220 q 9 -174 12 -122 q 16 -69 17 -24 z m 28 415 q 28 432 45 432 q 62 432 62 415 q 62 399 45 399 q 28 399 28 415 z"},"i":{"x_min":0,"x_max":225,"ha":225,"o":"m 36 415 q 36 432 53 432 q 70 432 70 415 q 70 399 53 399 q 36 399 36 415 z m 8 131 q 8 140 10 169 q 11 198 14 230 q 18 261 24 286 q 30 310 40 310 q 47 310 47 303 l 47 301 q 38 259 32 218 q 26 177 26 134 q 26 123 26 102 q 27 81 32 60 q 36 40 45 24 q 54 9 70 9 q 91 9 114 32 q 136 56 156 88 q 177 119 193 151 q 209 183 217 199 q 223 212 229 226 q 235 239 242 252 q 246 259 252 259 q 259 259 259 251 l 258 249 q 251 233 240 208 q 228 182 214 154 q 199 125 182 96 q 164 67 144 44 q 125 20 105 6 q 85 -9 66 -9 q 44 -9 32 8 q 21 24 16 46 q 10 69 9 92 q 8 116 8 131 z"},"y":{"x_min":0,"x_max":410,"ha":410,"o":"m 235 49 l 235 68 q 235 116 234 162 q 233 208 232 256 q 226 242 216 218 q 205 195 192 168 q 178 140 162 112 q 147 83 130 60 q 113 38 96 24 q 78 9 61 9 q 42 9 30 19 q 19 29 13 44 q 7 59 6 76 q 4 93 4 108 q 4 130 6 157 q 7 184 12 212 q 16 240 23 266 q 30 291 42 310 q 44 314 48 318 q 51 321 56 321 q 63 321 63 314 q 63 312 61 308 q 49 290 41 266 q 33 241 29 214 q 25 187 24 160 q 22 134 22 112 q 22 102 23 87 q 24 72 28 59 q 33 46 42 36 q 50 27 65 27 q 77 27 92 40 q 106 54 120 75 q 135 96 149 122 q 163 147 175 172 q 187 196 196 216 q 206 237 210 247 q 216 261 222 276 q 227 290 235 303 q 239 310 245 310 q 252 310 252 303 l 252 295 l 250 280 l 250 272 l 250 224 l 253 128 l 253 80 l 253 68 q 270 85 286 102 q 303 119 320 136 q 348 165 376 193 q 404 221 427 253 q 431 259 437 259 q 444 259 444 252 q 444 248 440 243 q 437 238 435 235 q 412 206 386 179 q 360 152 334 126 q 329 121 324 116 q 319 110 314 105 l 273 64 q 268 59 263 54 q 258 48 253 43 q 253 0 250 -52 q 247 -105 238 -156 q 230 -208 214 -252 q 198 -296 170 -322 q 157 -334 140 -340 q 123 -345 106 -345 q 88 -345 75 -338 q 62 -330 54 -318 q 45 -306 40 -291 q 36 -276 36 -260 q 36 -234 44 -208 q 52 -183 65 -160 q 98 -103 142 -52 q 187 0 235 49 z m 235 23 q 231 19 228 15 q 224 11 220 7 l 190 -26 q 186 -30 182 -34 q 179 -38 175 -42 q 157 -62 136 -88 q 115 -113 97 -140 q 79 -168 66 -198 q 54 -227 54 -256 q 54 -284 68 -306 q 83 -327 114 -327 q 140 -327 159 -309 q 178 -291 192 -262 q 205 -233 213 -196 q 221 -159 226 -120 q 231 -81 233 -44 q 235 -6 235 23 z"},"@":{"x_min":0,"x_max":743,"ha":743,"o":"m 444 275 q 437 264 424 246 q 412 228 397 207 q 382 186 365 164 q 348 143 330 126 q 313 109 296 98 q 280 87 267 87 q 253 87 244 96 q 235 104 230 117 q 226 130 224 144 q 223 158 223 169 q 223 196 234 227 q 246 258 266 284 q 285 309 312 326 q 338 343 368 343 q 376 343 388 340 q 400 338 412 332 q 423 327 431 320 q 439 312 439 302 q 439 297 436 294 q 432 291 428 291 q 422 291 420 297 q 418 303 415 306 q 406 315 392 320 q 377 325 364 325 q 337 325 314 310 q 292 294 276 270 q 259 246 250 218 q 241 191 241 167 q 241 161 242 150 q 244 140 247 130 q 250 120 256 112 q 262 105 271 105 q 283 105 300 118 q 316 131 334 152 q 351 172 370 197 q 388 222 404 246 q 421 270 434 290 q 447 310 455 320 q 458 325 464 325 q 471 325 471 318 l 471 316 q 464 284 458 252 q 451 220 451 187 q 451 173 454 154 q 457 136 464 119 q 471 102 483 90 q 495 79 513 79 q 531 79 546 90 q 560 102 571 119 q 582 136 590 155 q 597 174 601 188 q 610 221 610 257 q 610 305 594 342 q 579 378 551 403 q 523 428 484 441 q 446 454 400 454 q 342 454 291 434 q 240 413 202 376 q 164 340 142 290 q 121 240 121 181 q 121 130 138 89 q 154 48 184 19 q 214 -10 256 -26 q 297 -42 347 -42 q 400 -42 448 -28 q 496 -14 544 8 q 546 9 549 9 q 556 9 556 2 q 556 -6 544 -12 q 533 -17 527 -19 q 483 -38 437 -49 q 391 -60 343 -60 q 290 -60 246 -43 q 201 -26 170 5 q 138 36 120 80 q 103 123 103 177 q 103 240 126 294 q 150 348 191 388 q 232 427 286 450 q 341 472 404 472 q 453 472 494 458 q 535 444 565 417 q 595 390 612 351 q 628 312 628 261 q 628 236 621 202 q 614 167 599 136 q 584 104 561 82 q 538 61 506 61 q 485 61 471 74 q 457 87 448 106 q 440 124 436 146 q 433 167 433 183 q 433 228 444 275 z"},".":{"x_min":0,"x_max":142,"ha":142,"o":"m 50 38 q 58 38 63 33 q 68 28 68 20 q 68 12 64 7 q 59 2 51 2 q 43 2 38 7 q 33 12 33 20 q 33 28 38 33 q 42 38 50 38 z"},"p":{"x_min":0,"x_max":418,"ha":418,"o":"m 30 -316 q 28 -326 19 -326 q 12 -326 12 -319 q 11 -305 11 -292 q 11 -279 11 -265 q 11 -256 11 -243 q 11 -230 12 -213 q 13 -134 14 -56 q 15 22 17 101 q 18 144 19 187 q 20 230 22 273 q 24 293 24 314 q 25 334 29 353 q 31 363 40 363 q 47 363 47 356 l 47 355 q 40 292 38 229 q 37 166 35 103 q 34 86 34 68 q 34 51 34 34 q 42 91 54 146 q 67 200 84 242 q 101 284 124 310 q 147 336 176 336 q 199 336 215 322 q 231 307 240 286 q 250 264 254 240 q 259 217 259 199 q 259 180 256 154 q 254 127 247 99 q 292 123 334 150 q 375 178 408 216 q 416 225 422 234 q 428 243 435 253 q 439 259 445 259 q 452 259 452 252 q 452 248 448 242 q 445 236 443 233 q 425 207 402 186 q 378 164 352 145 q 326 126 298 110 q 269 94 242 79 q 235 56 226 34 q 216 12 202 -4 q 189 -21 172 -31 q 155 -41 134 -41 q 122 -41 112 -34 q 102 -28 102 -14 q 102 4 118 20 q 134 35 148 44 q 167 56 186 66 q 206 77 226 88 q 234 119 238 148 q 241 177 241 195 q 241 210 238 231 q 234 252 226 272 q 217 291 204 304 q 191 318 172 318 q 153 318 139 302 q 125 286 117 271 q 95 231 80 174 q 64 117 54 53 q 44 -11 38 -76 q 33 -142 31 -197 l 30 -275 q 30 -285 30 -296 q 31 -306 30 -316 z m 220 67 q 203 58 185 48 q 167 37 152 26 q 138 16 129 6 q 120 -3 120 -10 q 120 -18 128 -20 q 135 -23 141 -23 q 170 -23 190 4 q 209 30 220 67 z"},"X":{"x_min":0,"x_max":653,"ha":653,"o":"m 4 435 q 4 430 0 427 q -3 424 -7 424 q -13 424 -16 435 q -20 446 -22 460 q -24 473 -24 486 q -25 500 -25 504 q -25 531 -19 562 q -13 593 2 620 q 16 647 39 664 q 62 682 95 682 q 128 682 156 646 q 184 610 210 552 q 235 495 260 423 q 285 351 311 279 q 337 322 361 365 q 385 408 407 448 q 429 487 448 522 q 466 557 480 584 q 497 616 513 647 q 529 678 547 709 q 551 715 557 715 q 564 715 564 708 q 564 704 563 703 q 542 665 515 614 q 488 562 456 503 q 425 444 390 382 q 355 319 318 259 q 340 200 364 146 q 387 91 414 50 q 442 8 473 -16 q 504 -41 541 -41 q 553 -41 566 -38 q 579 -34 590 -30 q 600 -25 608 -21 q 615 -17 618 -17 q 625 -17 625 -24 q 625 -32 614 -38 q 603 -44 588 -49 q 573 -54 558 -56 q 543 -59 535 -59 q 506 -59 480 -43 q 454 -27 431 -2 q 408 24 388 56 q 369 89 354 122 q 338 155 326 186 q 313 216 305 237 q 253 154 202 88 q 150 22 103 -10 q 86 -21 68 -28 q 51 -36 31 -36 q 24 -36 24 -29 q 24 -24 28 -22 q 31 -19 35 -18 q 51 -16 62 -13 q 72 -10 86 -1 q 110 14 136 40 q 163 67 190 101 q 217 135 244 175 q 272 215 298 257 q 271 330 246 403 q 222 476 197 534 q 172 592 146 628 q 121 664 91 664 q 63 664 44 648 q 25 632 14 608 q 3 584 -2 557 q -7 530 -7 508 q -7 489 -4 472 q -1 455 4 437 z"},"*":{"x_min":0,"x_max":448,"ha":448,"o":"m 203 385 q 203 405 204 425 q 204 445 205 465 l 206 481 l 202 484 q 187 473 172 462 q 157 450 142 438 q 139 435 135 435 q 128 435 128 442 q 128 446 132 450 q 137 455 154 467 q 170 479 191 494 q 160 520 136 542 q 113 564 113 567 q 113 578 124 578 q 128 578 130 576 q 149 558 168 540 q 187 523 207 506 l 208 544 q 208 551 208 562 q 209 572 209 583 q 209 594 209 604 q 209 614 210 620 q 212 631 221 631 q 228 631 228 624 q 228 604 228 584 q 227 565 226 545 l 225 518 q 252 536 274 550 q 297 564 302 564 q 309 564 309 557 q 309 551 303 547 l 288 538 l 259 522 q 242 512 224 499 l 224 491 l 257 464 l 272 452 l 304 430 l 319 418 q 322 417 322 413 q 322 408 318 405 q 315 402 310 402 q 305 402 280 422 q 255 441 223 467 l 223 465 q 223 458 222 448 q 222 437 222 426 q 222 415 222 405 q 222 395 221 389 q 219 378 210 378 q 203 378 203 385 z"},"Y":{"x_min":0,"x_max":731,"ha":731,"o":"m 612 549 q 605 483 591 414 q 577 346 556 279 q 534 212 504 150 q 473 87 433 33 q 420 15 402 -2 q 384 -20 364 -34 q 344 -47 321 -56 q 298 -64 274 -64 q 231 -64 206 -40 q 182 -15 170 21 q 158 57 156 98 q 153 138 153 169 q 153 228 159 286 q 165 345 173 403 q 178 441 183 478 q 188 516 188 554 q 188 574 186 593 q 183 612 175 626 q 167 641 152 650 q 138 659 113 659 q 82 659 56 646 q 31 633 12 611 q -7 589 -18 561 q -28 533 -28 504 q -28 497 -28 488 q -28 479 -39 479 q -44 479 -46 484 q -47 489 -47 493 q -47 553 -18 599 q 11 645 68 667 q 93 677 117 677 q 145 677 162 668 q 180 658 190 642 q 199 625 202 604 q 206 582 206 558 q 206 520 201 482 q 196 444 191 406 q 183 348 177 290 q 171 232 171 173 q 171 146 173 108 q 175 70 186 36 q 196 2 218 -22 q 239 -46 278 -46 q 308 -46 334 -32 q 361 -19 382 1 q 436 51 476 131 q 517 211 544 302 q 571 392 584 482 q 598 573 598 645 l 597 654 l 597 658 q 597 664 599 670 q 601 677 609 677 q 614 677 616 672 q 628 629 630 578 q 632 528 632 483 q 632 434 628 366 q 624 299 614 224 q 604 148 586 72 q 569 -5 542 -71 q 514 -137 476 -188 q 438 -238 386 -260 q 367 -268 348 -270 q 330 -272 310 -272 q 306 -272 300 -271 q 294 -270 294 -264 q 294 -257 299 -255 q 304 -253 309 -253 l 316 -254 q 336 -254 356 -251 q 375 -248 393 -238 q 439 -214 473 -164 q 507 -115 532 -50 q 556 14 572 87 q 588 160 598 232 q 607 303 610 368 q 614 432 614 479 q 614 497 614 515 q 614 533 612 550 z"},"c":{"x_min":0,"x_max":309,"ha":309,"o":"m 342 249 q 332 226 317 196 q 302 167 284 136 q 266 105 244 76 q 222 46 197 22 q 172 -1 145 -15 q 118 -29 89 -29 q 62 -29 42 -15 q 23 -1 10 20 q -2 41 -8 66 q -13 92 -13 115 q -13 144 -5 182 q 3 221 20 256 q 38 290 64 314 q 90 338 126 338 q 152 338 168 318 q 184 299 184 274 q 184 259 177 246 q 170 233 157 225 q 155 223 152 222 q 148 220 146 220 q 139 220 139 227 q 139 232 143 235 q 147 238 152 242 q 158 245 162 252 q 166 259 166 272 q 166 292 152 306 q 139 320 119 320 q 105 320 94 314 q 83 308 73 300 q 56 285 44 263 q 31 241 22 216 q 14 192 10 166 q 5 141 5 119 q 5 98 10 76 q 15 53 26 34 q 36 14 53 2 q 70 -11 95 -11 q 127 -11 157 10 q 187 32 213 63 q 239 94 260 128 q 280 161 293 186 q 295 191 298 195 q 300 199 302 203 l 317 236 q 319 241 322 244 q 324 248 326 252 q 330 259 336 259 q 343 259 343 251 z"},"!":{"x_min":0,"x_max":284,"ha":284,"o":"m 81 73 q 91 173 99 272 q 107 372 115 472 l 124 606 q 125 620 126 634 q 127 649 129 663 q 131 673 140 673 q 147 673 147 666 l 147 665 q 139 565 132 465 q 125 365 117 265 q 114 232 111 198 q 108 165 105 132 q 103 118 102 104 q 101 89 99 75 q 97 65 88 65 q 81 65 81 72 z m 73 12 q 73 30 92 30 q 109 30 109 11 q 109 -7 90 -7 q 73 -7 73 12 z"},"/":{"x_min":0,"x_max":394,"ha":394,"o":"m 51 -137 q 51 -134 56 -116 q 61 -98 69 -72 q 77 -47 86 -18 q 96 12 104 38 q 113 65 120 86 q 127 106 129 114 l 284 593 q 286 597 286 600 q 287 604 289 608 l 298 638 q 302 648 303 653 q 304 655 304 656 q 304 658 305 660 l 308 673 q 309 675 309 676 q 309 678 310 680 q 314 689 321 689 q 328 689 328 682 q 328 678 323 660 q 318 643 310 618 q 303 593 294 564 q 284 535 276 509 q 267 483 260 462 q 253 442 251 434 l 146 112 q 132 70 119 28 q 106 -13 93 -55 q 87 -75 82 -96 q 76 -117 69 -136 q 65 -144 58 -144 q 51 -144 51 -137 z"},"[":{"x_min":0,"x_max":225,"ha":225,"o":"m 128 -57 q 149 -57 168 -53 l 169 -52 q 177 -52 177 -59 q 177 -65 171 -68 q 165 -72 156 -74 q 148 -75 140 -75 q 132 -75 128 -75 q 118 -75 102 -74 q 85 -73 78 -65 q 65 -50 58 -14 q 51 23 48 65 q 44 107 44 147 q 43 187 43 208 q 43 225 44 262 q 44 300 46 348 q 47 396 49 448 q 51 500 54 546 q 57 591 62 624 q 66 656 71 665 q 81 681 96 688 q 112 696 130 696 q 133 696 141 696 q 149 696 158 695 q 166 694 172 692 q 178 690 178 685 q 178 680 174 677 q 171 674 167 674 q 157 674 152 675 l 143 677 q 138 678 128 678 q 116 678 104 674 q 93 670 87 659 q 85 655 84 647 q 82 639 81 630 q 80 620 79 612 q 78 603 78 598 q 69 501 65 405 q 61 309 61 212 q 61 201 62 178 q 62 156 63 129 q 64 102 66 72 q 68 43 72 18 q 75 -8 80 -27 q 86 -46 93 -52 q 97 -55 110 -56 q 123 -57 128 -57 z"},"6":{"x_min":0,"x_max":2103,"ha":2103,"o":"m 293 256 l 293 298 q 293 301 291 303 l 187 409 l 187 409 l 187 208 q 187 191 193 191 l 137 191 q 143 191 143 208 l 143 453 q 143 468 137 470 l 193 470 q 191 470 191 468 q 191 463 193 456 q 195 449 203 441 l 290 353 q 293 350 293 353 l 293 469 q 293 485 287 486 l 346 486 q 344 486 340 481 q 337 476 337 469 l 337 256 z m 212 151 q 214 151 216 156 q 218 161 218 168 l 218 370 l 262 325 l 262 260 q 262 252 264 252 q 267 251 273 251 l 355 251 q 362 251 365 252 q 368 252 368 260 l 368 441 q 368 448 366 453 q 365 458 362 458 l 418 458 q 416 458 414 453 q 412 448 412 441 l 412 184 q 412 167 418 167 l 362 167 q 368 167 368 184 l 368 211 q 368 219 365 220 q 362 220 355 220 l 273 220 q 267 220 264 220 q 262 219 262 211 l 262 168 q 262 161 264 156 q 265 151 268 151 z m 337 215 l 337 184 q 337 177 339 172 q 341 167 343 167 l 287 167 q 293 169 293 184 l 293 215 z m 218 469 q 218 484 212 486 l 268 486 q 265 486 264 481 q 262 476 262 469 l 262 389 l 218 433 z m 47 319 q 47 398 64 447 q 80 496 110 523 q 141 550 184 560 q 226 569 278 569 q 330 569 372 560 q 415 550 445 523 q 475 496 492 447 q 508 398 508 319 q 508 240 492 191 q 475 142 445 114 q 415 87 372 78 q 330 68 278 68 q 226 68 184 78 q 141 87 110 114 q 80 142 64 191 q 47 240 47 319 z m 79 319 q 79 246 92 202 q 106 157 132 132 q 158 108 195 100 q 232 92 278 92 q 324 92 361 100 q 398 108 424 132 q 449 157 462 202 q 476 246 476 319 q 476 392 462 436 q 449 481 424 505 q 398 529 361 537 q 324 545 278 545 q 232 545 195 537 q 158 529 132 504 q 106 480 92 436 q 79 391 79 319 z m 880 317 q 880 257 846 214 q 811 170 753 158 q 736 154 718 154 q 701 153 684 153 l 568 153 l 568 483 l 687 483 q 728 483 763 474 q 798 465 824 445 q 850 425 865 394 q 880 362 880 317 z m 792 319 q 792 348 784 368 q 775 387 760 399 q 745 411 723 416 q 701 421 674 421 l 653 421 l 653 215 l 674 215 q 729 215 760 237 q 792 259 792 319 z m 945 153 l 945 483 l 1184 483 l 1184 419 l 1030 419 l 1030 362 l 1173 362 l 1173 299 l 1030 299 l 1030 217 l 1184 217 l 1184 153 z m 1517 153 l 1517 374 l 1456 230 l 1397 230 l 1335 374 l 1335 153 l 1255 153 l 1255 483 l 1354 483 l 1428 317 l 1503 483 l 1602 483 l 1602 153 z m 2007 318 q 2007 238 1962 192 q 1917 146 1837 146 q 1757 146 1712 192 q 1667 238 1667 318 q 1667 398 1712 444 q 1757 490 1837 490 q 1917 490 1962 444 q 2007 397 2007 318 z m 1837 208 q 1860 208 1876 218 q 1892 228 1902 244 q 1911 259 1915 279 q 1919 299 1919 318 q 1919 338 1915 358 q 1911 377 1902 392 q 1892 408 1876 418 q 1860 428 1837 428 q 1814 428 1798 418 q 1782 408 1772 392 q 1763 377 1759 358 q 1755 338 1755 318 q 1755 299 1759 279 q 1763 259 1772 244 q 1782 228 1798 218 q 1814 208 1837 208 z"},"r":{"x_min":0,"x_max":320,"ha":320,"o":"m 35 126 q 40 146 50 181 q 60 216 76 250 q 91 285 112 310 q 133 336 158 336 q 181 336 194 314 q 208 292 219 266 q 230 240 241 218 q 252 196 270 196 q 283 196 294 206 q 306 216 316 228 q 326 239 334 249 q 342 259 347 259 q 354 259 354 252 q 354 250 352 246 q 345 237 336 225 q 326 213 314 202 q 303 192 290 185 q 278 178 266 178 q 243 178 229 200 q 215 222 204 248 q 193 274 182 296 q 171 318 154 318 q 133 318 114 288 q 96 259 82 220 q 67 181 58 142 q 48 104 45 87 q 39 56 36 22 q 35 15 36 8 q 36 0 34 -7 q 32 -18 23 -18 q 16 -18 16 -11 l 16 87 q 16 132 16 175 q 17 218 19 263 q 20 280 21 300 q 22 319 25 335 q 27 345 36 345 q 43 345 43 338 l 43 337 q 38 284 37 232 q 36 179 35 126 z"},"2":{"x_min":0,"x_max":2103,"ha":2103,"o":"m 293 256 l 293 298 q 293 301 291 303 l 187 409 l 187 409 l 187 208 q 187 191 193 191 l 137 191 q 143 191 143 208 l 143 453 q 143 468 137 470 l 193 470 q 191 470 191 468 q 191 463 193 456 q 195 449 203 441 l 290 353 q 293 350 293 353 l 293 469 q 293 485 287 486 l 346 486 q 344 486 340 481 q 337 476 337 469 l 337 256 z m 212 151 q 214 151 216 156 q 218 161 218 168 l 218 370 l 262 325 l 262 260 q 262 252 264 252 q 267 251 273 251 l 355 251 q 362 251 365 252 q 368 252 368 260 l 368 441 q 368 448 366 453 q 365 458 362 458 l 418 458 q 416 458 414 453 q 412 448 412 441 l 412 184 q 412 167 418 167 l 362 167 q 368 167 368 184 l 368 211 q 368 219 365 220 q 362 220 355 220 l 273 220 q 267 220 264 220 q 262 219 262 211 l 262 168 q 262 161 264 156 q 265 151 268 151 z m 337 215 l 337 184 q 337 177 339 172 q 341 167 343 167 l 287 167 q 293 169 293 184 l 293 215 z m 218 469 q 218 484 212 486 l 268 486 q 265 486 264 481 q 262 476 262 469 l 262 389 l 218 433 z m 47 319 q 47 398 64 447 q 80 496 110 523 q 141 550 184 560 q 226 569 278 569 q 330 569 372 560 q 415 550 445 523 q 475 496 492 447 q 508 398 508 319 q 508 240 492 191 q 475 142 445 114 q 415 87 372 78 q 330 68 278 68 q 226 68 184 78 q 141 87 110 114 q 80 142 64 191 q 47 240 47 319 z m 79 319 q 79 246 92 202 q 106 157 132 132 q 158 108 195 100 q 232 92 278 92 q 324 92 361 100 q 398 108 424 132 q 449 157 462 202 q 476 246 476 319 q 476 392 462 436 q 449 481 424 505 q 398 529 361 537 q 324 545 278 545 q 232 545 195 537 q 158 529 132 504 q 106 480 92 436 q 79 391 79 319 z m 880 317 q 880 257 846 214 q 811 170 753 158 q 736 154 718 154 q 701 153 684 153 l 568 153 l 568 483 l 687 483 q 728 483 763 474 q 798 465 824 445 q 850 425 865 394 q 880 362 880 317 z m 792 319 q 792 348 784 368 q 775 387 760 399 q 745 411 723 416 q 701 421 674 421 l 653 421 l 653 215 l 674 215 q 729 215 760 237 q 792 259 792 319 z m 945 153 l 945 483 l 1184 483 l 1184 419 l 1030 419 l 1030 362 l 1173 362 l 1173 299 l 1030 299 l 1030 217 l 1184 217 l 1184 153 z m 1517 153 l 1517 374 l 1456 230 l 1397 230 l 1335 374 l 1335 153 l 1255 153 l 1255 483 l 1354 483 l 1428 317 l 1503 483 l 1602 483 l 1602 153 z m 2007 318 q 2007 238 1962 192 q 1917 146 1837 146 q 1757 146 1712 192 q 1667 238 1667 318 q 1667 398 1712 444 q 1757 490 1837 490 q 1917 490 1962 444 q 2007 397 2007 318 z m 1837 208 q 1860 208 1876 218 q 1892 228 1902 244 q 1911 259 1915 279 q 1919 299 1919 318 q 1919 338 1915 358 q 1911 377 1902 392 q 1892 408 1876 418 q 1860 428 1837 428 q 1814 428 1798 418 q 1782 408 1772 392 q 1763 377 1759 358 q 1755 338 1755 318 q 1755 299 1759 279 q 1763 259 1772 244 q 1782 228 1798 218 q 1814 208 1837 208 z"},"{":{"x_min":0,"x_max":243,"ha":243,"o":"m 55 333 q 77 317 85 290 q 93 264 96 231 q 98 198 98 162 q 97 126 101 90 q 105 55 117 23 q 129 -9 156 -33 q 165 -41 177 -48 q 189 -54 202 -54 l 207 -52 q 217 -52 217 -59 q 217 -67 210 -70 q 202 -72 196 -72 q 186 -72 176 -68 q 167 -65 159 -60 q 127 -39 110 -8 q 94 22 87 57 q 80 92 80 129 q 79 166 78 200 q 77 233 72 262 q 68 290 54 307 q 50 312 40 318 q 30 323 30 328 q 30 333 34 336 q 51 351 60 370 q 71 393 77 418 q 83 442 88 466 l 103 545 q 105 557 109 581 q 113 605 120 630 q 128 655 140 674 q 151 692 168 692 q 171 692 174 691 q 178 690 178 685 q 178 674 167 674 q 160 674 158 672 q 155 669 152 664 q 145 652 138 626 q 131 600 126 570 q 120 541 115 513 q 110 485 107 468 q 104 452 100 433 q 96 414 90 396 q 84 378 76 362 q 67 345 55 333 z"},"9":{"x_min":0,"x_max":2103,"ha":2103,"o":"m 293 256 l 293 298 q 293 301 291 303 l 187 409 l 187 409 l 187 208 q 187 191 193 191 l 137 191 q 143 191 143 208 l 143 453 q 143 468 137 470 l 193 470 q 191 470 191 468 q 191 463 193 456 q 195 449 203 441 l 290 353 q 293 350 293 353 l 293 469 q 293 485 287 486 l 346 486 q 344 486 340 481 q 337 476 337 469 l 337 256 z m 212 151 q 214 151 216 156 q 218 161 218 168 l 218 370 l 262 325 l 262 260 q 262 252 264 252 q 267 251 273 251 l 355 251 q 362 251 365 252 q 368 252 368 260 l 368 441 q 368 448 366 453 q 365 458 362 458 l 418 458 q 416 458 414 453 q 412 448 412 441 l 412 184 q 412 167 418 167 l 362 167 q 368 167 368 184 l 368 211 q 368 219 365 220 q 362 220 355 220 l 273 220 q 267 220 264 220 q 262 219 262 211 l 262 168 q 262 161 264 156 q 265 151 268 151 z m 337 215 l 337 184 q 337 177 339 172 q 341 167 343 167 l 287 167 q 293 169 293 184 l 293 215 z m 218 469 q 218 484 212 486 l 268 486 q 265 486 264 481 q 262 476 262 469 l 262 389 l 218 433 z m 47 319 q 47 398 64 447 q 80 496 110 523 q 141 550 184 560 q 226 569 278 569 q 330 569 372 560 q 415 550 445 523 q 475 496 492 447 q 508 398 508 319 q 508 240 492 191 q 475 142 445 114 q 415 87 372 78 q 330 68 278 68 q 226 68 184 78 q 141 87 110 114 q 80 142 64 191 q 47 240 47 319 z m 79 319 q 79 246 92 202 q 106 157 132 132 q 158 108 195 100 q 232 92 278 92 q 324 92 361 100 q 398 108 424 132 q 449 157 462 202 q 476 246 476 319 q 476 392 462 436 q 449 481 424 505 q 398 529 361 537 q 324 545 278 545 q 232 545 195 537 q 158 529 132 504 q 106 480 92 436 q 79 391 79 319 z m 880 317 q 880 257 846 214 q 811 170 753 158 q 736 154 718 154 q 701 153 684 153 l 568 153 l 568 483 l 687 483 q 728 483 763 474 q 798 465 824 445 q 850 425 865 394 q 880 362 880 317 z m 792 319 q 792 348 784 368 q 775 387 760 399 q 745 411 723 416 q 701 421 674 421 l 653 421 l 653 215 l 674 215 q 729 215 760 237 q 792 259 792 319 z m 945 153 l 945 483 l 1184 483 l 1184 419 l 1030 419 l 1030 362 l 1173 362 l 1173 299 l 1030 299 l 1030 217 l 1184 217 l 1184 153 z m 1517 153 l 1517 374 l 1456 230 l 1397 230 l 1335 374 l 1335 153 l 1255 153 l 1255 483 l 1354 483 l 1428 317 l 1503 483 l 1602 483 l 1602 153 z m 2007 318 q 2007 238 1962 192 q 1917 146 1837 146 q 1757 146 1712 192 q 1667 238 1667 318 q 1667 398 1712 444 q 1757 490 1837 490 q 1917 490 1962 444 q 2007 397 2007 318 z m 1837 208 q 1860 208 1876 218 q 1892 228 1902 244 q 1911 259 1915 279 q 1919 299 1919 318 q 1919 338 1915 358 q 1911 377 1902 392 q 1892 408 1876 418 q 1860 428 1837 428 q 1814 428 1798 418 q 1782 408 1772 392 q 1763 377 1759 358 q 1755 338 1755 318 q 1755 299 1759 279 q 1763 259 1772 244 q 1782 228 1798 218 q 1814 208 1837 208 z"}," ":{"x_min":0,"x_max":340,"ha":340,"o":""},"I":{"x_min":0,"x_max":341,"ha":341,"o":"m 32 442 q 32 437 28 434 q 25 431 21 431 q 15 431 12 442 q 8 453 6 466 q 4 480 4 494 q 3 507 3 511 q 3 538 9 570 q 15 601 30 628 q 44 654 67 672 q 90 689 123 689 q 140 689 156 681 q 174 672 186 649 q 197 626 204 596 q 211 565 214 530 q 217 495 218 462 q 220 428 220 400 q 219 371 219 353 q 219 277 216 202 q 213 126 208 50 q 206 29 204 8 q 203 -12 201 -32 q 201 -37 200 -39 l 200 -53 q 199 -55 199 -60 l 302 -60 q 309 -60 309 -67 q 309 -78 298 -78 l 195 -78 q 191 -84 186 -84 q 181 -84 179 -79 l 124 -81 l 95 -81 q 91 -81 86 -80 q 82 -78 82 -73 q 82 -68 86 -65 q 89 -62 93 -62 l 105 -62 l 129 -60 l 180 -60 q 190 47 196 152 q 201 257 201 365 q 201 389 200 429 q 200 469 196 512 q 192 554 185 592 q 178 629 164 647 q 155 659 144 665 q 134 671 119 671 q 91 671 72 655 q 53 639 42 615 q 31 591 26 564 q 21 537 21 515 q 21 496 24 479 q 27 462 32 444 z"},"H":{"x_min":0,"x_max":640,"ha":640,"o":"m -47 442 q -47 431 -58 431 q -63 431 -65 436 q -70 454 -73 474 q -76 493 -76 511 q -76 539 -68 572 q -59 605 -42 633 q -26 661 -1 680 q 24 699 57 699 q 83 699 102 684 q 122 668 136 642 q 149 616 158 582 q 167 548 172 512 q 178 476 180 440 q 182 405 183 375 q 260 382 336 386 q 412 389 489 389 q 491 428 494 466 q 496 505 500 544 q 504 583 509 628 q 514 672 523 710 q 525 719 534 719 q 541 719 541 712 l 541 710 q 527 629 520 549 q 512 469 508 388 q 554 385 594 372 q 598 370 606 368 q 613 365 613 360 q 613 349 601 349 l 600 350 q 554 364 507 369 q 505 309 504 249 q 503 189 503 129 q 503 107 503 86 q 503 64 505 41 l 505 38 q 519 0 519 -43 q 519 -47 518 -54 q 518 -62 516 -70 q 515 -77 512 -82 q 508 -88 502 -88 q 497 -88 496 -84 q 494 -79 493 -75 q 488 -46 486 -17 q 485 12 485 41 q 469 84 438 125 q 408 166 368 202 q 328 239 280 269 q 233 299 184 318 q 184 279 183 229 q 182 179 179 128 q 176 77 170 28 q 163 -20 152 -56 q 150 -62 146 -73 q 141 -84 133 -84 q 126 -84 126 -76 l 127 -74 q 140 -40 148 12 q 156 65 160 122 q 164 178 165 232 q 166 287 166 325 q 115 344 68 348 l 65 348 l 58 347 l 55 347 l 30 345 l 27 345 l 20 344 l 17 344 q 6 343 -6 342 q -19 340 -30 340 q -37 340 -37 347 q -37 354 -27 358 q -17 362 -4 364 q 9 366 22 366 q 34 367 39 367 q 48 367 56 367 q 65 367 74 366 q 80 367 86 367 q 91 367 97 368 l 142 372 q 148 373 154 373 q 160 373 165 374 q 164 403 162 437 q 160 471 155 505 q 150 539 142 570 q 133 602 120 626 q 108 651 91 666 q 74 681 50 681 q 23 681 2 664 q -18 646 -32 620 q -45 595 -52 566 q -58 537 -58 515 q -58 497 -54 480 q -51 462 -47 444 z m 184 339 q 278 304 358 239 q 438 174 485 86 l 485 125 q 485 187 486 248 q 486 308 488 370 q 480 371 473 371 q 466 371 458 371 q 389 371 321 367 q 253 363 184 358 z m 139 354 l 166 345 l 166 356 q 162 356 159 355 z"},"4":{"x_min":0,"x_max":2103,"ha":2103,"o":"m 293 256 l 293 298 q 293 301 291 303 l 187 409 l 187 409 l 187 208 q 187 191 193 191 l 137 191 q 143 191 143 208 l 143 453 q 143 468 137 470 l 193 470 q 191 470 191 468 q 191 463 193 456 q 195 449 203 441 l 290 353 q 293 350 293 353 l 293 469 q 293 485 287 486 l 346 486 q 344 486 340 481 q 337 476 337 469 l 337 256 z m 212 151 q 214 151 216 156 q 218 161 218 168 l 218 370 l 262 325 l 262 260 q 262 252 264 252 q 267 251 273 251 l 355 251 q 362 251 365 252 q 368 252 368 260 l 368 441 q 368 448 366 453 q 365 458 362 458 l 418 458 q 416 458 414 453 q 412 448 412 441 l 412 184 q 412 167 418 167 l 362 167 q 368 167 368 184 l 368 211 q 368 219 365 220 q 362 220 355 220 l 273 220 q 267 220 264 220 q 262 219 262 211 l 262 168 q 262 161 264 156 q 265 151 268 151 z m 337 215 l 337 184 q 337 177 339 172 q 341 167 343 167 l 287 167 q 293 169 293 184 l 293 215 z m 218 469 q 218 484 212 486 l 268 486 q 265 486 264 481 q 262 476 262 469 l 262 389 l 218 433 z m 47 319 q 47 398 64 447 q 80 496 110 523 q 141 550 184 560 q 226 569 278 569 q 330 569 372 560 q 415 550 445 523 q 475 496 492 447 q 508 398 508 319 q 508 240 492 191 q 475 142 445 114 q 415 87 372 78 q 330 68 278 68 q 226 68 184 78 q 141 87 110 114 q 80 142 64 191 q 47 240 47 319 z m 79 319 q 79 246 92 202 q 106 157 132 132 q 158 108 195 100 q 232 92 278 92 q 324 92 361 100 q 398 108 424 132 q 449 157 462 202 q 476 246 476 319 q 476 392 462 436 q 449 481 424 505 q 398 529 361 537 q 324 545 278 545 q 232 545 195 537 q 158 529 132 504 q 106 480 92 436 q 79 391 79 319 z m 880 317 q 880 257 846 214 q 811 170 753 158 q 736 154 718 154 q 701 153 684 153 l 568 153 l 568 483 l 687 483 q 728 483 763 474 q 798 465 824 445 q 850 425 865 394 q 880 362 880 317 z m 792 319 q 792 348 784 368 q 775 387 760 399 q 745 411 723 416 q 701 421 674 421 l 653 421 l 653 215 l 674 215 q 729 215 760 237 q 792 259 792 319 z m 945 153 l 945 483 l 1184 483 l 1184 419 l 1030 419 l 1030 362 l 1173 362 l 1173 299 l 1030 299 l 1030 217 l 1184 217 l 1184 153 z m 1517 153 l 1517 374 l 1456 230 l 1397 230 l 1335 374 l 1335 153 l 1255 153 l 1255 483 l 1354 483 l 1428 317 l 1503 483 l 1602 483 l 1602 153 z m 2007 318 q 2007 238 1962 192 q 1917 146 1837 146 q 1757 146 1712 192 q 1667 238 1667 318 q 1667 398 1712 444 q 1757 490 1837 490 q 1917 490 1962 444 q 2007 397 2007 318 z m 1837 208 q 1860 208 1876 218 q 1892 228 1902 244 q 1911 259 1915 279 q 1919 299 1919 318 q 1919 338 1915 358 q 1911 377 1902 392 q 1892 408 1876 418 q 1860 428 1837 428 q 1814 428 1798 418 q 1782 408 1772 392 q 1763 377 1759 358 q 1755 338 1755 318 q 1755 299 1759 279 q 1763 259 1772 244 q 1782 228 1798 218 q 1814 208 1837 208 z"},"~":{"x_min":0,"x_max":363,"ha":363,"o":"m 308 330 q 293 299 257 299 q 238 299 220 303 q 201 307 182 312 q 164 318 146 322 q 127 326 108 326 q 104 326 96 324 q 88 323 80 320 q 73 317 68 312 q 62 308 62 303 q 62 298 60 293 q 58 288 51 288 q 46 288 45 292 q 44 296 44 300 q 44 311 52 319 q 59 327 70 332 q 80 338 92 341 q 103 344 112 344 q 131 344 149 340 q 167 336 185 330 q 203 325 221 321 q 239 317 258 317 q 274 317 280 322 q 287 327 290 334 q 294 340 296 345 q 298 350 305 350 q 312 350 312 343 q 312 336 308 330 z"},"D":{"x_min":0,"x_max":658,"ha":658,"o":"m 177 66 q 179 52 180 40 q 181 28 185 14 q 199 -34 236 -64 q 273 -95 325 -95 q 355 -95 382 -82 q 408 -70 429 -49 q 464 -15 488 35 q 511 85 524 140 q 538 196 544 252 q 549 309 549 356 q 549 394 544 438 q 539 481 527 523 q 515 565 494 602 q 473 639 441 663 q 424 676 404 684 q 385 691 364 691 q 328 691 299 668 q 270 644 248 604 q 226 564 210 511 q 193 458 181 399 q 169 340 162 279 q 154 218 150 162 q 145 106 143 58 q 141 11 140 -21 q 139 -35 140 -48 q 140 -62 138 -76 q 136 -87 127 -87 q 120 -87 120 -80 q 120 -36 122 8 q 123 51 124 95 q 126 188 128 279 q 129 370 129 463 q 129 482 128 518 q 126 554 119 590 q 112 626 97 652 q 82 679 55 679 q 28 679 10 658 q -9 636 -20 606 q -32 577 -36 546 q -41 515 -41 495 q -41 449 -29 414 q -17 378 19 348 q 22 347 22 342 q 22 331 11 331 q 8 331 7 332 q -32 362 -46 402 q -59 443 -59 491 q -59 517 -53 552 q -47 588 -32 620 q -18 652 5 674 q 28 697 62 697 q 83 697 97 684 q 111 671 120 650 q 130 629 136 604 q 141 578 144 552 q 146 526 146 504 q 147 481 147 467 q 147 423 147 380 q 147 336 146 292 q 150 322 156 364 q 163 407 174 453 q 186 499 202 545 q 219 591 242 628 q 266 664 297 686 q 328 709 368 709 q 402 709 433 692 q 474 669 500 630 q 526 591 541 546 q 556 500 562 451 q 567 402 567 360 q 567 322 562 272 q 558 222 548 170 q 537 117 518 66 q 500 16 472 -24 q 445 -64 406 -88 q 368 -113 317 -113 q 301 -113 280 -107 q 259 -101 245 -93 q 159 -39 159 62 q 159 73 170 73 q 177 73 177 66 z"},"^":{"x_min":0,"x_max":400,"ha":400,"o":"m 326 373 q 326 368 324 364 q 321 359 315 359 q 309 359 308 363 q 307 365 306 367 q 306 369 305 371 l 300 386 q 298 392 297 394 q 291 409 285 424 q 279 440 272 454 q 257 486 238 516 q 220 545 202 575 q 182 540 164 504 q 145 468 130 430 q 129 427 128 424 q 127 420 126 417 l 118 393 q 117 390 116 386 q 116 383 114 380 q 110 371 103 371 q 96 371 96 378 q 96 391 108 422 q 121 453 138 488 q 154 522 170 552 q 187 583 195 596 q 199 602 205 602 q 210 602 211 599 q 217 590 222 580 q 228 571 233 562 q 261 517 286 470 q 312 424 326 373 z"},"0":{"x_min":0,"x_max":2103,"ha":2103,"o":"m 293 256 l 293 298 q 293 301 291 303 l 187 409 l 187 409 l 187 208 q 187 191 193 191 l 137 191 q 143 191 143 208 l 143 453 q 143 468 137 470 l 193 470 q 191 470 191 468 q 191 463 193 456 q 195 449 203 441 l 290 353 q 293 350 293 353 l 293 469 q 293 485 287 486 l 346 486 q 344 486 340 481 q 337 476 337 469 l 337 256 z m 212 151 q 214 151 216 156 q 218 161 218 168 l 218 370 l 262 325 l 262 260 q 262 252 264 252 q 267 251 273 251 l 355 251 q 362 251 365 252 q 368 252 368 260 l 368 441 q 368 448 366 453 q 365 458 362 458 l 418 458 q 416 458 414 453 q 412 448 412 441 l 412 184 q 412 167 418 167 l 362 167 q 368 167 368 184 l 368 211 q 368 219 365 220 q 362 220 355 220 l 273 220 q 267 220 264 220 q 262 219 262 211 l 262 168 q 262 161 264 156 q 265 151 268 151 z m 337 215 l 337 184 q 337 177 339 172 q 341 167 343 167 l 287 167 q 293 169 293 184 l 293 215 z m 218 469 q 218 484 212 486 l 268 486 q 265 486 264 481 q 262 476 262 469 l 262 389 l 218 433 z m 47 319 q 47 398 64 447 q 80 496 110 523 q 141 550 184 560 q 226 569 278 569 q 330 569 372 560 q 415 550 445 523 q 475 496 492 447 q 508 398 508 319 q 508 240 492 191 q 475 142 445 114 q 415 87 372 78 q 330 68 278 68 q 226 68 184 78 q 141 87 110 114 q 80 142 64 191 q 47 240 47 319 z m 79 319 q 79 246 92 202 q 106 157 132 132 q 158 108 195 100 q 232 92 278 92 q 324 92 361 100 q 398 108 424 132 q 449 157 462 202 q 476 246 476 319 q 476 392 462 436 q 449 481 424 505 q 398 529 361 537 q 324 545 278 545 q 232 545 195 537 q 158 529 132 504 q 106 480 92 436 q 79 391 79 319 z m 880 317 q 880 257 846 214 q 811 170 753 158 q 736 154 718 154 q 701 153 684 153 l 568 153 l 568 483 l 687 483 q 728 483 763 474 q 798 465 824 445 q 850 425 865 394 q 880 362 880 317 z m 792 319 q 792 348 784 368 q 775 387 760 399 q 745 411 723 416 q 701 421 674 421 l 653 421 l 653 215 l 674 215 q 729 215 760 237 q 792 259 792 319 z m 945 153 l 945 483 l 1184 483 l 1184 419 l 1030 419 l 1030 362 l 1173 362 l 1173 299 l 1030 299 l 1030 217 l 1184 217 l 1184 153 z m 1517 153 l 1517 374 l 1456 230 l 1397 230 l 1335 374 l 1335 153 l 1255 153 l 1255 483 l 1354 483 l 1428 317 l 1503 483 l 1602 483 l 1602 153 z m 2007 318 q 2007 238 1962 192 q 1917 146 1837 146 q 1757 146 1712 192 q 1667 238 1667 318 q 1667 398 1712 444 q 1757 490 1837 490 q 1917 490 1962 444 q 2007 397 2007 318 z m 1837 208 q 1860 208 1876 218 q 1892 228 1902 244 q 1911 259 1915 279 q 1919 299 1919 318 q 1919 338 1915 358 q 1911 377 1902 392 q 1892 408 1876 418 q 1860 428 1837 428 q 1814 428 1798 418 q 1782 408 1772 392 q 1763 377 1759 358 q 1755 338 1755 318 q 1755 299 1759 279 q 1763 259 1772 244 q 1782 228 1798 218 q 1814 208 1837 208 z"},"F":{"x_min":0,"x_max":563,"ha":563,"o":"m 353 252 q 343 251 334 251 q 325 251 316 250 q 312 180 302 111 q 292 42 272 -17 q 262 -45 242 -69 q 222 -93 189 -93 q 159 -93 141 -76 q 123 -60 114 -36 q 104 -12 101 16 q 98 44 98 66 q 98 99 103 130 q 108 161 121 186 q 134 212 158 230 q 181 249 217 257 q 232 260 248 262 q 263 263 278 265 q 282 265 287 266 q 292 266 297 266 q 300 318 302 368 q 304 419 306 464 q 308 508 311 544 q 314 581 319 603 q 290 615 260 626 q 230 636 199 636 q 168 636 138 624 q 109 611 86 590 q 63 568 50 540 q 36 511 36 479 q 36 461 42 442 q 47 424 58 409 q 68 394 84 384 q 99 375 119 375 q 137 375 152 382 q 166 388 178 399 q 189 410 198 424 q 207 438 214 452 q 218 459 224 459 q 231 459 231 452 q 231 447 226 436 q 220 426 217 421 q 200 393 172 375 q 144 357 111 357 q 89 357 72 368 q 54 379 42 396 q 30 414 24 435 q 18 456 18 475 q 18 513 34 546 q 50 578 76 602 q 102 626 136 640 q 171 654 207 654 q 238 654 266 644 q 295 634 324 622 q 338 657 367 682 q 396 708 436 708 q 449 708 464 704 q 480 701 494 694 q 507 687 516 676 q 525 664 525 648 q 525 630 514 616 q 503 603 487 594 q 471 585 452 580 q 434 576 419 576 q 399 576 378 582 q 357 589 335 597 q 331 578 328 554 q 326 530 325 506 q 324 483 324 461 q 323 439 322 422 q 320 386 320 347 q 319 308 317 267 q 335 268 355 270 q 375 272 394 276 q 412 280 428 286 q 444 293 453 303 q 455 308 458 314 q 462 319 465 324 q 468 329 474 329 q 481 329 481 322 q 481 311 469 297 q 464 285 462 271 q 460 257 460 245 q 460 238 460 229 q 460 220 449 220 q 444 220 442 224 q 441 228 441 232 q 441 257 445 276 q 425 265 400 260 q 375 256 354 253 z m 340 615 q 362 606 384 600 q 405 594 427 594 q 438 594 452 597 q 465 600 478 606 q 490 612 498 622 q 507 631 507 644 q 507 656 500 664 q 492 673 481 679 q 470 685 458 688 q 446 690 436 690 q 403 690 380 672 q 357 654 344 625 q 343 623 342 620 q 341 618 340 615 z m 296 248 q 254 245 220 239 q 187 233 164 215 q 140 197 128 163 q 116 129 116 70 q 116 50 118 25 q 121 0 129 -22 q 137 -45 153 -60 q 169 -75 196 -75 q 222 -75 239 -48 q 256 -21 268 24 q 279 69 286 128 q 292 186 296 248 z"},"`":{"x_min":0,"x_max":172,"ha":172,"o":"m 28 481 q 24 484 24 489 q 24 496 31 496 q 34 496 46 488 q 57 480 70 470 q 83 460 93 450 q 103 441 103 438 q 103 431 96 431 q 95 431 85 438 q 75 445 63 454 q 51 463 41 471 q 31 479 28 481 z"},"k":{"x_min":0,"x_max":350,"ha":350,"o":"m 48 102 q 43 82 40 62 q 38 42 36 22 q 36 20 36 18 q 35 17 35 15 l 35 0 q 35 -2 34 -4 q 34 -5 34 -7 q 32 -18 23 -18 q 16 -18 16 -11 q 16 136 19 282 q 22 428 37 574 q 39 590 40 606 q 41 621 44 636 q 46 646 55 646 q 62 646 62 639 l 62 638 q 47 509 42 382 q 36 254 35 124 q 41 148 52 184 q 63 220 80 254 q 97 287 120 312 q 144 336 174 336 q 197 336 208 320 q 218 304 218 283 q 218 265 210 248 q 202 232 190 217 q 177 202 162 190 q 147 178 133 170 q 115 159 97 150 q 79 141 60 132 q 65 116 77 92 q 89 69 106 48 q 123 27 143 12 q 163 -3 182 -3 q 193 -3 204 4 q 216 12 224 19 q 264 54 295 105 q 326 156 347 204 q 352 216 356 228 q 361 240 366 251 q 370 259 377 259 q 384 259 384 249 q 378 232 366 206 q 354 179 338 149 q 321 119 302 88 q 282 58 261 34 q 240 10 218 -6 q 197 -21 176 -21 q 160 -21 141 -9 q 122 3 104 21 q 86 39 71 61 q 56 83 48 102 z m 60 150 q 76 159 100 170 q 123 182 146 198 q 168 214 184 235 q 200 256 200 284 q 200 298 192 308 q 184 318 170 318 q 150 318 133 302 q 116 286 102 262 q 89 237 78 208 q 68 178 60 150 z"},"u":{"x_min":0,"x_max":426,"ha":426,"o":"m 213 189 q 201 153 186 117 q 171 81 153 52 q 135 24 114 6 q 93 -12 69 -12 q 48 -12 36 5 q 25 22 19 46 q 13 69 12 94 q 10 118 10 133 q 10 175 14 216 q 19 257 26 298 q 28 306 29 316 q 30 325 32 333 q 34 342 43 342 q 50 342 50 335 l 50 333 q 41 284 34 236 q 28 188 28 137 q 28 125 29 104 q 30 82 35 60 q 40 38 50 22 q 59 6 76 6 q 89 6 100 14 q 110 22 118 31 q 140 56 158 94 q 176 131 190 173 q 204 215 214 257 q 224 299 231 332 q 233 342 242 342 q 249 342 249 335 l 249 334 l 249 333 l 248 330 l 248 328 q 240 282 235 236 q 230 191 230 144 q 230 131 232 108 q 233 85 238 63 q 243 41 254 25 q 265 9 284 9 q 303 9 320 23 q 337 37 352 59 q 368 81 381 108 q 394 136 406 163 q 417 190 426 214 q 436 238 443 252 q 447 259 453 259 q 460 259 460 251 l 459 249 q 438 199 417 148 q 396 97 367 52 q 353 29 331 10 q 309 -9 280 -9 q 256 -9 242 8 q 229 25 222 48 q 215 72 214 98 q 212 123 212 140 q 212 152 212 164 q 212 177 213 189 z"},"]":{"x_min":0,"x_max":235,"ha":235,"o":"m 93 679 q 72 679 53 675 l 52 674 q 44 674 44 681 q 44 687 50 690 q 56 694 64 696 q 73 697 81 697 q 89 697 93 697 q 103 697 120 696 q 136 695 143 687 q 156 672 163 636 q 170 599 174 557 q 177 515 178 475 q 178 435 178 414 q 178 397 178 360 q 177 322 176 274 q 174 226 172 174 q 170 122 167 76 q 164 31 160 -2 q 156 -34 150 -43 q 140 -59 124 -66 q 109 -74 91 -74 q 88 -74 80 -74 q 72 -74 64 -73 q 55 -72 49 -70 q 43 -68 43 -63 q 43 -58 46 -55 q 50 -52 54 -52 q 64 -52 69 -53 l 78 -55 q 83 -56 93 -56 q 105 -56 116 -52 q 128 -48 134 -37 q 136 -33 138 -25 q 139 -17 140 -8 q 141 2 142 10 q 143 19 143 24 q 152 121 156 217 q 160 313 160 410 q 160 421 160 444 q 159 466 158 493 q 157 520 155 550 q 153 579 150 604 q 146 630 140 649 q 135 668 128 674 q 124 677 111 678 q 98 679 93 679 z"},"U":{"x_min":0,"x_max":605,"ha":605,"o":"m -46 435 q -46 430 -50 427 q -53 424 -57 424 q -63 424 -66 435 q -70 446 -72 460 q -74 473 -74 486 q -75 500 -75 504 q -75 532 -68 564 q -62 595 -48 621 q -33 647 -10 664 q 14 682 48 682 q 81 682 100 658 q 118 635 127 602 q 136 570 138 535 q 141 500 141 477 q 141 427 136 378 q 130 328 124 279 q 118 230 112 180 q 107 131 107 81 q 107 56 110 30 q 114 5 124 -15 q 135 -35 154 -48 q 174 -61 205 -61 q 244 -61 276 -32 q 307 -2 333 47 q 359 96 380 160 q 400 223 416 290 q 431 358 442 425 q 453 492 460 547 q 465 601 472 655 q 473 661 475 672 q 477 682 486 682 q 493 682 493 675 l 493 674 q 490 645 486 608 q 482 572 476 530 q 476 525 476 520 q 475 516 475 511 l 472 473 q 466 370 460 269 q 455 168 455 65 q 455 33 456 2 q 458 -30 469 -60 q 469 -65 466 -70 q 464 -74 458 -74 q 450 -74 446 -56 q 442 -37 440 -13 q 438 11 438 33 q 437 55 437 62 q 437 134 440 204 q 442 274 446 346 q 441 319 431 277 q 421 235 406 188 q 392 141 372 94 q 353 46 328 8 q 302 -31 271 -55 q 240 -79 203 -79 q 168 -79 146 -66 q 123 -52 110 -30 q 98 -8 94 20 q 89 48 89 77 q 89 127 94 176 q 100 226 106 275 q 112 324 118 374 q 123 423 123 473 q 123 493 121 526 q 119 558 111 589 q 103 620 86 642 q 70 664 41 664 q 13 664 -6 648 q -25 632 -36 608 q -47 584 -52 557 q -57 530 -57 508 q -57 489 -54 472 q -51 455 -46 437 z"},"o":{"x_min":0,"x_max":382,"ha":382,"o":"m 235 134 q 229 106 217 77 q 205 48 188 24 q 170 1 146 -14 q 123 -29 94 -29 q 83 -29 73 -25 q 63 -21 53 -16 q 36 -6 24 11 q 11 28 4 48 q -4 69 -8 91 q -11 113 -11 131 q -11 149 -7 174 q -3 198 6 222 q 14 245 28 266 q 41 286 60 296 q 67 322 86 338 q 104 354 133 354 q 144 354 154 350 q 165 346 174 341 q 192 331 204 312 q 217 293 225 272 q 233 250 236 227 q 240 204 240 184 q 240 176 240 168 q 240 159 238 151 q 290 154 331 182 q 372 210 399 252 q 403 259 409 259 q 416 259 416 252 q 416 247 410 238 q 404 228 401 223 q 389 205 370 190 q 350 174 328 162 q 305 151 281 144 q 257 136 235 134 z m 90 287 q 80 285 76 283 l 75 280 q 75 251 88 228 q 100 204 120 188 q 140 171 166 162 q 192 152 219 151 q 222 166 222 180 q 222 201 217 228 q 212 255 201 279 q 190 303 172 320 q 153 336 127 336 q 110 336 98 327 q 86 318 80 304 q 84 305 93 305 q 100 305 100 298 q 100 289 90 287 z m 216 133 q 187 134 158 144 q 130 155 108 174 q 85 192 71 218 q 57 243 57 274 q 44 264 34 246 q 25 229 19 210 q 13 190 10 170 q 7 150 7 135 q 7 114 12 89 q 17 64 28 42 q 39 19 57 4 q 75 -11 100 -11 q 124 -11 143 2 q 162 16 176 37 q 191 58 201 84 q 211 109 216 133 z"},"N":{"x_min":0,"x_max":678,"ha":678,"o":"m 21 442 q 21 437 18 434 q 14 431 10 431 q 4 431 0 442 q -3 453 -5 466 q -7 480 -8 494 q -8 507 -8 511 q -8 538 -2 570 q 4 601 18 628 q 33 654 56 672 q 79 689 112 689 q 147 689 164 666 q 180 642 189 612 q 197 587 200 554 q 204 520 206 484 q 208 449 208 414 q 208 380 208 353 q 208 327 208 300 q 207 274 206 248 l 203 143 q 208 175 218 227 q 228 279 243 339 q 258 399 279 460 q 300 522 328 572 q 355 621 389 652 q 423 684 465 684 q 479 684 490 678 q 500 671 510 663 q 530 645 541 611 q 552 577 558 538 q 563 498 564 460 q 565 422 565 396 l 565 351 q 565 282 564 213 q 562 144 560 75 l 557 -17 q 557 -27 557 -36 q 557 -46 556 -56 q 554 -67 545 -67 q 538 -67 538 -60 q 538 -27 540 6 q 541 39 542 72 q 544 141 545 210 q 546 279 546 348 l 547 395 q 547 410 546 436 q 546 461 544 492 q 541 522 536 553 q 531 584 521 609 q 511 634 496 650 q 481 666 459 666 q 424 666 394 636 q 364 606 339 559 q 314 512 295 454 q 276 396 262 340 q 247 283 238 234 q 228 186 224 159 q 217 119 212 80 q 208 40 203 0 q 201 -20 200 -40 q 198 -60 194 -80 q 192 -90 183 -90 q 176 -90 176 -83 q 176 -68 176 -52 q 177 -37 178 -22 l 181 40 q 185 121 188 202 q 190 284 190 365 q 190 389 190 429 q 189 469 185 512 q 181 554 174 592 q 167 629 153 647 q 144 659 134 665 q 123 671 108 671 q 80 671 61 655 q 42 639 31 615 q 20 591 15 564 q 10 537 10 515 q 10 496 13 479 q 16 462 21 444 z"},"+":{"x_min":0,"x_max":410,"ha":410,"o":"m 205 199 q 203 207 203 214 q 203 222 203 230 q 201 256 201 282 q 201 307 201 333 q 147 330 92 330 q 85 330 85 338 q 85 343 88 345 q 92 347 96 348 q 109 350 132 350 q 156 349 171 350 q 179 350 186 350 q 193 351 201 351 l 201 375 l 200 448 l 200 484 q 200 495 211 495 q 216 495 218 488 q 220 474 220 452 q 220 431 220 416 l 220 352 q 274 355 328 355 q 335 355 335 348 q 335 339 324 337 q 311 335 288 336 q 264 336 249 335 q 241 335 234 334 q 228 334 220 334 q 220 269 223 204 l 223 203 q 223 192 212 192 q 207 192 205 199 z"},"G":{"x_min":0,"x_max":674,"ha":674,"o":"m 554 291 q 541 243 514 182 q 487 121 449 66 q 411 11 362 -26 q 312 -64 254 -64 q 197 -64 160 -33 q 122 -2 100 44 q 77 90 68 144 q 58 197 58 243 q 58 320 76 394 q 95 468 132 536 q 152 572 179 604 q 206 637 240 662 q 273 686 312 700 q 351 715 394 715 q 442 715 480 697 q 518 679 542 646 q 544 647 545 647 q 546 647 548 648 l 559 652 q 561 653 562 653 q 563 653 565 654 q 568 655 576 658 q 585 660 587 660 q 594 660 594 653 q 594 647 586 643 l 552 631 q 573 595 573 545 q 573 520 566 495 q 559 470 546 450 q 532 429 511 416 q 490 404 461 404 q 432 404 412 426 q 393 448 393 476 q 393 505 404 530 q 415 554 434 574 q 452 595 476 610 q 499 626 524 638 q 501 667 466 682 q 432 697 390 697 q 333 697 286 672 q 240 647 204 607 q 167 567 142 518 q 116 468 101 419 q 89 377 82 334 q 76 291 76 247 q 76 219 80 186 q 83 154 92 122 q 100 89 114 59 q 128 29 148 6 q 168 -18 196 -32 q 223 -46 258 -46 q 297 -46 332 -26 q 366 -6 396 26 q 426 59 452 100 q 477 141 496 184 q 515 227 528 268 q 541 309 547 341 l 550 354 q 550 356 550 358 q 551 359 551 361 q 553 371 562 371 q 568 371 569 365 q 572 345 572 324 q 573 303 573 283 q 573 237 568 178 q 563 120 551 60 q 539 1 518 -56 q 496 -113 464 -158 q 431 -202 385 -229 q 339 -256 277 -256 l 267 -256 q 263 -256 252 -255 q 242 -254 242 -247 q 242 -239 248 -238 q 254 -236 260 -236 l 274 -238 l 281 -238 q 339 -238 382 -212 q 424 -185 454 -142 q 484 -99 504 -44 q 523 12 534 69 q 546 126 550 181 q 554 236 554 279 z m 533 624 q 511 614 490 600 q 468 587 450 570 q 433 552 422 530 q 412 508 412 482 q 412 456 428 439 q 443 422 469 422 q 492 422 508 434 q 524 445 534 462 q 545 480 550 501 q 555 522 555 541 q 555 588 533 624 z"},"q":{"x_min":0,"x_max":399,"ha":399,"o":"m 196 21 q 226 38 258 66 q 289 93 318 126 q 347 158 372 192 q 397 225 416 253 q 420 259 426 259 q 433 259 433 252 q 433 249 431 245 q 429 241 427 239 q 410 212 384 180 q 359 147 330 115 q 300 83 270 56 q 240 28 213 11 q 255 -14 274 -52 q 294 -90 294 -138 q 294 -154 290 -180 q 285 -206 276 -231 q 266 -256 251 -274 q 236 -292 215 -292 q 197 -292 188 -274 q 178 -257 174 -234 q 169 -211 168 -187 q 167 -163 167 -151 q 167 -54 180 40 q 192 135 209 230 q 203 217 193 194 q 183 171 170 144 q 156 118 140 90 q 124 62 108 40 q 91 17 74 3 q 58 -11 42 -11 q 23 -11 11 2 q -1 14 -8 32 q -15 50 -17 70 q -19 90 -19 105 q -19 138 -10 177 q -1 216 18 250 q 36 283 65 306 q 94 328 134 328 q 159 328 180 312 q 200 295 209 272 q 213 280 216 288 q 219 295 224 303 q 228 310 234 310 q 241 310 241 303 l 241 301 q 227 231 216 162 q 205 92 196 21 z m 196 241 q 192 255 188 268 q 183 280 175 290 q 167 299 156 304 q 144 310 127 310 q 93 310 69 289 q 45 268 30 237 q 14 206 6 171 q -1 136 -1 109 q -1 99 1 82 q 3 64 8 48 q 13 31 22 19 q 31 7 46 7 q 57 7 71 21 q 85 35 100 58 q 115 80 130 107 q 145 134 158 160 q 171 186 181 208 q 191 230 196 241 z m 194 -2 q 190 -38 188 -74 q 185 -110 185 -147 q 185 -156 186 -176 q 186 -197 190 -219 q 193 -241 200 -258 q 207 -274 219 -274 q 225 -274 230 -270 q 234 -267 238 -263 q 248 -253 255 -238 q 262 -223 266 -206 q 271 -190 274 -173 q 276 -156 276 -142 q 276 -104 262 -72 q 249 -40 218 -17 q 212 -12 206 -9 q 200 -6 194 -2 z"},"d":{"x_min":0,"x_max":419,"ha":419,"o":"m 198 232 q 186 191 170 148 q 155 105 135 70 q 115 34 92 12 q 68 -11 40 -11 q 22 -11 10 2 q -1 15 -8 34 q -14 52 -16 72 q -19 92 -19 105 q -19 137 -10 176 q -2 214 16 248 q 34 282 62 305 q 90 328 129 328 q 149 328 166 315 q 182 302 193 284 q 202 322 210 358 q 218 394 224 424 q 230 455 234 479 q 238 503 240 516 q 244 536 248 557 q 251 578 254 598 q 256 608 257 618 q 258 628 260 638 q 262 648 271 648 q 278 648 278 641 l 278 640 q 263 527 250 416 q 238 304 238 190 q 238 177 239 148 q 240 118 245 87 q 250 56 260 32 q 270 9 288 9 q 299 9 312 20 q 324 32 336 50 q 349 69 361 91 q 373 113 384 134 q 394 155 402 172 q 409 190 413 199 q 419 212 424 226 q 429 239 436 252 q 440 259 446 259 q 453 259 453 251 l 452 249 q 447 235 436 210 q 426 186 413 158 q 400 129 384 99 q 368 69 352 45 q 335 21 318 6 q 300 -9 284 -9 q 260 -9 247 16 q 234 40 228 72 q 222 104 221 137 q 220 170 220 186 q 220 227 222 268 q 224 308 227 349 q 223 333 218 308 q 212 284 204 255 q 205 252 205 248 q 205 245 205 242 q 205 236 198 232 z m 184 249 q 178 271 164 290 q 151 310 125 310 q 91 310 67 288 q 43 267 28 236 q 13 206 6 171 q -1 136 -1 109 q -1 98 0 81 q 2 64 8 48 q 13 31 22 19 q 31 7 46 7 q 67 7 86 28 q 106 48 124 82 q 141 115 156 159 q 171 203 184 249 z"},"1":{"x_min":0,"x_max":2103,"ha":2103,"o":"m 293 256 l 293 298 q 293 301 291 303 l 187 409 l 187 409 l 187 208 q 187 191 193 191 l 137 191 q 143 191 143 208 l 143 453 q 143 468 137 470 l 193 470 q 191 470 191 468 q 191 463 193 456 q 195 449 203 441 l 290 353 q 293 350 293 353 l 293 469 q 293 485 287 486 l 346 486 q 344 486 340 481 q 337 476 337 469 l 337 256 z m 212 151 q 214 151 216 156 q 218 161 218 168 l 218 370 l 262 325 l 262 260 q 262 252 264 252 q 267 251 273 251 l 355 251 q 362 251 365 252 q 368 252 368 260 l 368 441 q 368 448 366 453 q 365 458 362 458 l 418 458 q 416 458 414 453 q 412 448 412 441 l 412 184 q 412 167 418 167 l 362 167 q 368 167 368 184 l 368 211 q 368 219 365 220 q 362 220 355 220 l 273 220 q 267 220 264 220 q 262 219 262 211 l 262 168 q 262 161 264 156 q 265 151 268 151 z m 337 215 l 337 184 q 337 177 339 172 q 341 167 343 167 l 287 167 q 293 169 293 184 l 293 215 z m 218 469 q 218 484 212 486 l 268 486 q 265 486 264 481 q 262 476 262 469 l 262 389 l 218 433 z m 47 319 q 47 398 64 447 q 80 496 110 523 q 141 550 184 560 q 226 569 278 569 q 330 569 372 560 q 415 550 445 523 q 475 496 492 447 q 508 398 508 319 q 508 240 492 191 q 475 142 445 114 q 415 87 372 78 q 330 68 278 68 q 226 68 184 78 q 141 87 110 114 q 80 142 64 191 q 47 240 47 319 z m 79 319 q 79 246 92 202 q 106 157 132 132 q 158 108 195 100 q 232 92 278 92 q 324 92 361 100 q 398 108 424 132 q 449 157 462 202 q 476 246 476 319 q 476 392 462 436 q 449 481 424 505 q 398 529 361 537 q 324 545 278 545 q 232 545 195 537 q 158 529 132 504 q 106 480 92 436 q 79 391 79 319 z m 880 317 q 880 257 846 214 q 811 170 753 158 q 736 154 718 154 q 701 153 684 153 l 568 153 l 568 483 l 687 483 q 728 483 763 474 q 798 465 824 445 q 850 425 865 394 q 880 362 880 317 z m 792 319 q 792 348 784 368 q 775 387 760 399 q 745 411 723 416 q 701 421 674 421 l 653 421 l 653 215 l 674 215 q 729 215 760 237 q 792 259 792 319 z m 945 153 l 945 483 l 1184 483 l 1184 419 l 1030 419 l 1030 362 l 1173 362 l 1173 299 l 1030 299 l 1030 217 l 1184 217 l 1184 153 z m 1517 153 l 1517 374 l 1456 230 l 1397 230 l 1335 374 l 1335 153 l 1255 153 l 1255 483 l 1354 483 l 1428 317 l 1503 483 l 1602 483 l 1602 153 z m 2007 318 q 2007 238 1962 192 q 1917 146 1837 146 q 1757 146 1712 192 q 1667 238 1667 318 q 1667 398 1712 444 q 1757 490 1837 490 q 1917 490 1962 444 q 2007 397 2007 318 z m 1837 208 q 1860 208 1876 218 q 1892 228 1902 244 q 1911 259 1915 279 q 1919 299 1919 318 q 1919 338 1915 358 q 1911 377 1902 392 q 1892 408 1876 418 q 1860 428 1837 428 q 1814 428 1798 418 q 1782 408 1772 392 q 1763 377 1759 358 q 1755 338 1755 318 q 1755 299 1759 279 q 1763 259 1772 244 q 1782 228 1798 218 q 1814 208 1837 208 z"},"5":{"x_min":0,"x_max":2103,"ha":2103,"o":"m 293 256 l 293 298 q 293 301 291 303 l 187 409 l 187 409 l 187 208 q 187 191 193 191 l 137 191 q 143 191 143 208 l 143 453 q 143 468 137 470 l 193 470 q 191 470 191 468 q 191 463 193 456 q 195 449 203 441 l 290 353 q 293 350 293 353 l 293 469 q 293 485 287 486 l 346 486 q 344 486 340 481 q 337 476 337 469 l 337 256 z m 212 151 q 214 151 216 156 q 218 161 218 168 l 218 370 l 262 325 l 262 260 q 262 252 264 252 q 267 251 273 251 l 355 251 q 362 251 365 252 q 368 252 368 260 l 368 441 q 368 448 366 453 q 365 458 362 458 l 418 458 q 416 458 414 453 q 412 448 412 441 l 412 184 q 412 167 418 167 l 362 167 q 368 167 368 184 l 368 211 q 368 219 365 220 q 362 220 355 220 l 273 220 q 267 220 264 220 q 262 219 262 211 l 262 168 q 262 161 264 156 q 265 151 268 151 z m 337 215 l 337 184 q 337 177 339 172 q 341 167 343 167 l 287 167 q 293 169 293 184 l 293 215 z m 218 469 q 218 484 212 486 l 268 486 q 265 486 264 481 q 262 476 262 469 l 262 389 l 218 433 z m 47 319 q 47 398 64 447 q 80 496 110 523 q 141 550 184 560 q 226 569 278 569 q 330 569 372 560 q 415 550 445 523 q 475 496 492 447 q 508 398 508 319 q 508 240 492 191 q 475 142 445 114 q 415 87 372 78 q 330 68 278 68 q 226 68 184 78 q 141 87 110 114 q 80 142 64 191 q 47 240 47 319 z m 79 319 q 79 246 92 202 q 106 157 132 132 q 158 108 195 100 q 232 92 278 92 q 324 92 361 100 q 398 108 424 132 q 449 157 462 202 q 476 246 476 319 q 476 392 462 436 q 449 481 424 505 q 398 529 361 537 q 324 545 278 545 q 232 545 195 537 q 158 529 132 504 q 106 480 92 436 q 79 391 79 319 z m 880 317 q 880 257 846 214 q 811 170 753 158 q 736 154 718 154 q 701 153 684 153 l 568 153 l 568 483 l 687 483 q 728 483 763 474 q 798 465 824 445 q 850 425 865 394 q 880 362 880 317 z m 792 319 q 792 348 784 368 q 775 387 760 399 q 745 411 723 416 q 701 421 674 421 l 653 421 l 653 215 l 674 215 q 729 215 760 237 q 792 259 792 319 z m 945 153 l 945 483 l 1184 483 l 1184 419 l 1030 419 l 1030 362 l 1173 362 l 1173 299 l 1030 299 l 1030 217 l 1184 217 l 1184 153 z m 1517 153 l 1517 374 l 1456 230 l 1397 230 l 1335 374 l 1335 153 l 1255 153 l 1255 483 l 1354 483 l 1428 317 l 1503 483 l 1602 483 l 1602 153 z m 2007 318 q 2007 238 1962 192 q 1917 146 1837 146 q 1757 146 1712 192 q 1667 238 1667 318 q 1667 398 1712 444 q 1757 490 1837 490 q 1917 490 1962 444 q 2007 397 2007 318 z m 1837 208 q 1860 208 1876 218 q 1892 228 1902 244 q 1911 259 1915 279 q 1919 299 1919 318 q 1919 338 1915 358 q 1911 377 1902 392 q 1892 408 1876 418 q 1860 428 1837 428 q 1814 428 1798 418 q 1782 408 1772 392 q 1763 377 1759 358 q 1755 338 1755 318 q 1755 299 1759 279 q 1763 259 1772 244 q 1782 228 1798 218 q 1814 208 1837 208 z"}}}
